<?xml version="1.0" encoding="UTF-8" standalone="no"?>
<svg xmlns:rdf="http://www.w3.org/1999/02/22-rdf-syntax-ns#" xmlns="http://www.w3.org/2000/svg" height="302.11496" width="376.53146" version="1.1" enable-background="new" xmlns:cc="http://creativecommons.org/ns#" xmlns:xlink="http://www.w3.org/1999/xlink" xmlns:dc="http://purl.org/dc/elements/1.1/">
 <defs>
  <filter id="ay" height="1.2033" width="1.0757" color-interpolation-filters="sRGB" y="-.10164" x="-.037861999">
   <feGaussianBlur stdDeviation="0.71465694"/>
  </filter>
  <linearGradient id="d">
   <stop stop-color="#fff" offset="0"/>
   <stop stop-color="#fff" stop-opacity="0" offset="1"/>
  </linearGradient>
  <linearGradient id="c">
   <stop offset="0"/>
   <stop stop-opacity="0" offset="1"/>
  </linearGradient>
  <linearGradient id="x">
   <stop offset="0"/>
   <stop stop-opacity="0" offset="1"/>
  </linearGradient>
  <clipPath id="bc" clipPathUnits="userSpaceOnUse">
   <rect transform="matrix(.9545455 0 0 .89256196 -4.6363639 -1.3719273)" height="22" width="48" y="-6" x="-126" fill="#a40000"/>
  </clipPath>
  <filter id="ba" height="1.6873863" width="1.1309307" color-interpolation-filters="sRGB" y="-.34369317" x="-.065465368">
   <feGaussianBlur stdDeviation="1.1456439"/>
  </filter>
  <linearGradient id="t">
   <stop stop-color="#729fcf" offset="0"/>
   <stop stop-color="#204a87" offset="1"/>
  </linearGradient>
  <linearGradient id="w">
   <stop stop-color="#cbdbed" offset="0"/>
   <stop stop-color="#204a87" offset="1"/>
  </linearGradient>
  <linearGradient id="v">
   <stop stop-color="#fff" stop-opacity=".60000002" offset="0"/>
   <stop stop-color="#fff" stop-opacity=".20784314" offset="1"/>
  </linearGradient>
  <linearGradient id="u">
   <stop stop-color="#fff" stop-opacity=".80000001" offset="0"/>
   <stop stop-color="#fff" stop-opacity="0" offset="1"/>
  </linearGradient>
  <filter id="ax" color-interpolation-filters="sRGB">
   <feGaussianBlur stdDeviation="2" result="result0" in="SourceAlpha"/>
   <feComposite k4="0" in2="result0" k3="10" k2="1" k1="0" result="result3" in="SourceGraphic" operator="arithmetic"/>
   <feComposite operator="in" result="result4" in2="result3" in="result3"/>
  </filter>
  <filter id="aw" color-interpolation-filters="sRGB">
   <feGaussianBlur stdDeviation="2" result="result0" in="SourceAlpha"/>
   <feComposite k4="0" in2="result0" k3="10" k2="1" k1="0" result="result3" in="SourceGraphic" operator="arithmetic"/>
   <feComposite operator="in" result="result4" in2="result3" in="result3"/>
  </filter>
  <clipPath id="bb" clipPathUnits="userSpaceOnUse">
   <rect transform="matrix(.9545455 0 0 .89256196 -4.6363639 -1.3719273)" height="22" width="48" y="-6" x="-126" fill="#a40000"/>
  </clipPath>
  <filter id="az" height="1.6873863" width="1.1309307" color-interpolation-filters="sRGB" y="-.34369317" x="-.065465368">
   <feGaussianBlur stdDeviation="1.1456439"/>
  </filter>
  <filter id="au" color-interpolation-filters="sRGB">
   <feGaussianBlur stdDeviation="2" result="result0" in="SourceAlpha"/>
   <feComposite k4="0" in2="result0" k3="10" k2="1" k1="0" result="result3" in="SourceGraphic" operator="arithmetic"/>
   <feComposite operator="in" result="result4" in2="result3" in="result3"/>
  </filter>
  <filter id="at" color-interpolation-filters="sRGB">
   <feGaussianBlur stdDeviation="2" result="result0" in="SourceAlpha"/>
   <feComposite k4="0" in2="result0" k3="10" k2="1" k1="0" result="result3" in="SourceGraphic" operator="arithmetic"/>
   <feComposite operator="in" result="result4" in2="result3" in="result3"/>
  </filter>
  <marker id="b" refY="0" refX="0" orient="auto" overflow="visible">
   <path d="m5.77 0-8.65 5v-10l8.65 5z" fill-rule="evenodd" transform="matrix(.8 0 0 .8 -4.8 0)" stroke="#000" stroke-width="1pt" fill="#fff"/>
  </marker>
  <marker id="ak" refY="0" refX="0" orient="auto" overflow="visible">
   <path d="m5.77 0-8.65 5v-10l8.65 5z" fill-rule="evenodd" transform="matrix(.8 0 0 .8 -4.8 0)" stroke="#de0000" stroke-width="1pt" fill="#de0000"/>
  </marker>
  <marker id="be" refY="0" refX="0" orient="auto" overflow="visible">
   <path d="m5.77 0-8.65 5v-10l8.65 5z" fill-rule="evenodd" transform="matrix(.8 0 0 .8 -4.8 0)" stroke="#de0000" stroke-width="1pt" fill="#de0000"/>
  </marker>
  <linearGradient id="aj" y2="12" xlink:href="#t" gradientUnits="userSpaceOnUse" x2="15.5" gradientTransform="matrix(2.7333333,0,0,2.5714286,536.71867,52.67232)" y1="12" x1=".5"/>
  <linearGradient id="ai" y2="27" xlink:href="#w" gradientUnits="userSpaceOnUse" x2="-81.5" gradientTransform="translate(660.58645,59.02942)" y1="27" x1="-122.5"/>
  <linearGradient id="ah" y2="23.5" xlink:href="#v" gradientUnits="userSpaceOnUse" x2="-82" gradientTransform="translate(660.58645,60.02942)" y1="23.5" x1="-122"/>
  <linearGradient id="ag" y2="30" xlink:href="#u" gradientUnits="userSpaceOnUse" x2="-102" gradientTransform="translate(660.58645,52.02942)" y1="30" x1="-121"/>
  <linearGradient id="af" y2="12" xlink:href="#t" gradientUnits="userSpaceOnUse" x2="15.5" gradientTransform="matrix(2.7333333,0,0,2.5714286,536.71867,40.67232)" y1="12" x1=".5"/>
  <linearGradient id="ae" y2="27" xlink:href="#w" gradientUnits="userSpaceOnUse" x2="-81.5" gradientTransform="translate(660.58645,47.02942)" y1="27" x1="-122.5"/>
  <linearGradient id="ad" y2="23.5" xlink:href="#v" gradientUnits="userSpaceOnUse" x2="-82" gradientTransform="translate(660.58645,48.02942)" y1="23.5" x1="-122"/>
  <linearGradient id="ac" y2="30" xlink:href="#u" gradientUnits="userSpaceOnUse" x2="-102" gradientTransform="translate(660.58645,40.02942)" y1="30" x1="-121"/>
  <linearGradient id="ab" y2="12" xlink:href="#t" gradientUnits="userSpaceOnUse" x2="15.5" gradientTransform="matrix(2.7333333,0,0,2.5714286,536.71867,28.67232)" y1="12" x1=".5"/>
  <linearGradient id="aa" y2="27" xlink:href="#w" gradientUnits="userSpaceOnUse" x2="-81.5" gradientTransform="translate(660.58645,35.02942)" y1="27" x1="-122.5"/>
  <linearGradient id="z" y2="23.5" xlink:href="#v" gradientUnits="userSpaceOnUse" x2="-82" gradientTransform="translate(660.58645,36.02942)" y1="23.5" x1="-122"/>
  <linearGradient id="y" y2="30" xlink:href="#u" gradientUnits="userSpaceOnUse" x2="-102" gradientTransform="translate(660.58645,28.02942)" y1="30" x1="-121"/>
  <linearGradient id="s" y2="609.50507" gradientUnits="userSpaceOnUse" x2="302.85715" gradientTransform="matrix(2.774389,0,0,1.969706,-1892.179,-872.8854)" y1="366.64789" x1="302.85715">
   <stop stop-opacity="0" offset="0"/>
   <stop offset=".5"/>
   <stop stop-opacity="0" offset="1"/>
  </linearGradient>
  <radialGradient id="f" xlink:href="#x" gradientUnits="userSpaceOnUse" cy="486.64789" cx="605.71429" gradientTransform="matrix(2.774389,0,0,1.969706,-1891.633,-872.8854)" r="117.14286"/>
  <radialGradient id="e" xlink:href="#x" gradientUnits="userSpaceOnUse" cy="486.64789" cx="605.71429" gradientTransform="matrix(-2.774389,0,0,1.969706,112.7623,-872.8854)" r="117.14286"/>
  <linearGradient id="as" y2="10.018264" gradientUnits="userSpaceOnUse" x2="23.233509" gradientTransform="translate(-5.0885709e-7 .404062)" y1="34.463955" x1="24.349752">
   <stop stop-color="#d2d2d2" offset="0"/>
   <stop stop-color="#dfdfdf" offset="1"/>
  </linearGradient>
  <linearGradient id="a" y2="26.7868" gradientUnits="userSpaceOnUse" x2="22.311644" gradientTransform="matrix(.955932 0 0 1 .869911 0)" y1="26.887815" x1="27.324621">
   <stop stop-color="#fff" offset="0"/>
   <stop stop-color="#fff" stop-opacity="0" offset="1"/>
  </linearGradient>
  <linearGradient id="r" y2="30.928421" xlink:href="#d" gradientUnits="userSpaceOnUse" x2="16.36447" gradientTransform="translate(2.707105)" y1="39.918777" x1="16.36447"/>
  <linearGradient id="q" y2="30.928421" xlink:href="#d" gradientUnits="userSpaceOnUse" x2="16.36447" gradientTransform="translate(4.707105)" y1="39.918777" x1="16.36447"/>
  <linearGradient id="p" y2="30.928421" xlink:href="#d" gradientUnits="userSpaceOnUse" x2="16.36447" gradientTransform="translate(6.707105)" y1="39.918777" x1="16.36447"/>
  <linearGradient id="o" y2="30.928421" xlink:href="#d" gradientUnits="userSpaceOnUse" x2="16.36447" gradientTransform="translate(8.707105)" y1="39.918777" x1="16.36447"/>
  <linearGradient id="n" y2="30.928421" xlink:href="#d" gradientUnits="userSpaceOnUse" x2="16.36447" gradientTransform="translate(10.70714)" y1="39.918777" x1="16.36447"/>
  <linearGradient id="m" y2="30.928421" xlink:href="#d" gradientUnits="userSpaceOnUse" x2="16.36447" gradientTransform="translate(12.70714)" y1="39.918777" x1="16.36447"/>
  <linearGradient id="l" y2="30.928421" xlink:href="#c" gradientUnits="userSpaceOnUse" x2="16.36447" gradientTransform="translate(1.61624)" y1="39.918777" x1="16.36447"/>
  <linearGradient id="k" y2="30.928421" xlink:href="#c" gradientUnits="userSpaceOnUse" x2="16.36447" gradientTransform="translate(3.61624)" y1="39.918777" x1="16.36447"/>
  <linearGradient id="j" y2="30.928421" xlink:href="#c" gradientUnits="userSpaceOnUse" x2="16.36447" gradientTransform="translate(5.61624)" y1="39.918777" x1="16.36447"/>
  <linearGradient id="i" y2="30.928421" xlink:href="#c" gradientUnits="userSpaceOnUse" x2="16.36447" gradientTransform="translate(7.61624)" y1="39.918777" x1="16.36447"/>
  <linearGradient id="h" y2="30.928421" xlink:href="#c" gradientUnits="userSpaceOnUse" x2="16.36447" gradientTransform="translate(9.616235)" y1="39.918777" x1="16.36447"/>
  <linearGradient id="g" y2="30.928421" xlink:href="#c" gradientUnits="userSpaceOnUse" x2="16.36447" gradientTransform="translate(11.61632)" y1="39.918777" x1="16.36447"/>
  <linearGradient id="ar" y2="10.018264" gradientUnits="userSpaceOnUse" x2="23.233509" gradientTransform="translate(-5.0885705e-7 .404062)" y1="34.463955" x1="24.349752">
   <stop stop-color="#d2d2d2" offset="0"/>
   <stop stop-color="#dfdfdf" offset="1"/>
  </linearGradient>
  <linearGradient id="aq" y2="30.489" gradientUnits="userSpaceOnUse" x2="24" gradientTransform="matrix(1.7777683,0,0,1.7777683,322.29226,116.18495)" y1="2.0109" x1="17.799">
   <stop stop-color="#2e3436" offset="0"/>
   <stop stop-color="#080d19" offset="1"/>
  </linearGradient>
  <linearGradient id="ap" y2="8.2395" gradientUnits="userSpaceOnUse" x2="24.75" gradientTransform="matrix(1.8581234,0,0,1.7336619,320.8125,117.35453)" y1="26.933001" x1="24.75">
   <stop stop-color="#3465a4" offset="0"/>
   <stop stop-color="#204a87" offset="1"/>
  </linearGradient>
  <linearGradient id="ao" y2="18.138" gradientUnits="userSpaceOnUse" x2="25.174999" gradientTransform="matrix(1.8888788,0,0,1.6592445,319.62561,117.10347)" y1="4.7385001" x1="21.087999">
   <stop stop-color="#fff" offset="0"/>
   <stop stop-color="#fff" stop-opacity="0" offset="1"/>
  </linearGradient>
  <linearGradient id="an" y2="10.018264" gradientUnits="userSpaceOnUse" x2="23.233509" gradientTransform="translate(-5.0885526e-7 .404062)" y1="34.463955" x1="24.349752">
   <stop stop-color="#d2d2d2" offset="0"/>
   <stop stop-color="#dfdfdf" offset="1"/>
  </linearGradient>
  <linearGradient id="am" y2="10.018264" gradientUnits="userSpaceOnUse" x2="23.233509" gradientTransform="translate(-5.0885051e-7 .404062)" y1="34.463955" x1="24.349752">
   <stop stop-color="#d2d2d2" offset="0"/>
   <stop stop-color="#dfdfdf" offset="1"/>
  </linearGradient>
  <filter id="av" color-interpolation-filters="sRGB">
   <feGaussianBlur stdDeviation="2" result="result0" in="SourceAlpha"/>
   <feComposite k4="0" in2="result0" k3="10" k2="1" k1="0" result="result3" in="SourceGraphic" operator="arithmetic"/>
   <feComposite operator="in" result="result4" in2="result3" in="result3"/>
  </filter>
  <linearGradient id="al" y2="593.79077" gradientUnits="userSpaceOnUse" x2="454.23578" gradientTransform="translate(273.48522,-89.673205)" y1="178.07646" x1="281.09375">
   <stop stop-color="#fff" offset="0"/>
   <stop stop-color="#fff" stop-opacity="0" offset="1"/>
  </linearGradient>
  <marker id="bd" refY="0" refX="0" orient="auto" overflow="visible">
   <path d="m5.77 0-8.65 5v-10l8.65 5z" fill-rule="evenodd" transform="matrix(.8 0 0 .8 -4.8 0)" stroke="#de0000" stroke-width="1pt" fill="#de0000"/>
  </marker>
  <marker id="bf" refY="0" refX="0" orient="auto" overflow="visible">
   <path d="m5.77 0-8.65 5v-10l8.65 5z" fill-rule="evenodd" transform="matrix(.8 0 0 .8 -4.8 0)" stroke="#000" stroke-width="1pt" fill="#fff"/>
  </marker>
 </defs>
 <g transform="translate(-330.06516,33.546728)">
  <rect opacity=".6" ry="2.1563444" height="265.65863" width="332.32867" stroke="#000" y="-33.040977" x="373.76221" stroke-width="1.0115006" fill="#fff"/>
  <rect stroke-linejoin="round" ry="4.1603441" height="85.287056" width="117.78705" stroke="#000" y="-1.8976389" x="411.00363" stroke-width=".42344266" fill="#fff"/>
  <text style="word-spacing:0px;letter-spacing:0px" font-size="15.095541px" line-height="125%" y="12.634063" x="414.18619" font-family="Consolas" xml:space="preserve" fill="#000000"><tspan y="12.634063" x="414.18619">CouchDB-A</tspan></text>
  <g transform="matrix(1.6478168,0,0,1.6478168,-540.72935,-93.582796)">
   <g transform="matrix(.0142075 0 0 .02086758 590.75682 110.45328)">
    <rect opacity=".40206185" style="color:#000000" height="478.35718" width="1339.6335" y="-150.69685" x="-1559.2523" fill="url(#s)"/>
    <path opacity=".40206185" style="color:#000000" d="m-219.61876-150.68038v478.33079c142.874166 0.90045 345.40022-107.16966 345.40014-239.196175 0-132.026537-159.436816-239.134595-345.40014-239.134615z" fill="url(#f)"/>
    <path opacity=".40206185" style="color:#000000" d="m-1559.2523-150.68038v478.33079c-142.8742 0.90045-345.4002-107.16966-345.4002-239.196175 0-132.026537 159.4368-239.134595 345.4002-239.134615z" fill="url(#e)"/>
   </g>
   <g transform="translate(554.21431,72.29075)">
    <path stroke-linejoin="round" d="m12.466718 7.9979592v33.5370658h21.962152v-33.7390963l-4.04061-4.2426407h-14.082962l-3.83858 4.4446712z" fill-rule="evenodd" transform="matrix(1.001723 0 0 1.000481 .01180323 -.0549963)" stroke="#5e5e5e" stroke-linecap="round" stroke-width=".99889958px" fill="url(#ar)"/>
    <path d="m16.428571 4-3.428571 4.8571429h20.285714l-3.714285-4.7142858-13.142858-0.1428571z" fill-rule="evenodd" fill-opacity=".65536726" transform="matrix(1.035211 0 0 1.029412 -.457741 -.117647)" fill="#fff"/>
    <rect height="4.242641" stroke="#fff" stroke-width="1.01696146" fill="#fff" style="color:#000000" fill-rule="evenodd" transform="matrix(1.025575 0 0 .942809 -.872163 .354403)" width="15.601009" opacity=".34857142" y="11.291361" x="16.451418"/>
    <path d="m13.465157 8.6221002v31.7810238h19.822439v-31.9645649l-3.670822-3.8543633h-12.664336l-3.487281 4.0379044z" transform="matrix(1.008958 0 0 1.005055 -.08577756 -.107362)" stroke="#fff" stroke-width=".99304473" fill="none"/>
    <rect height="5.0418525" stroke="url(#a)" stroke-width="1.11743951" fill="url(#a)" style="color:#000000" fill-rule="evenodd" transform="matrix(1.009445 0 0 .793359 -.745308 5.309442)" width="10.897081" opacity=".52571429" y="23.558765" x="21.541845"/>
    <rect height="4.242641" stroke="#acacac" stroke-width="1.00375366" fill="#c8c8c8" style="color:#000000" fill-rule="evenodd" transform="matrix(1.052742 0 0 .942809 -1.366425 1.388024)" width="10.4489" y="23.453293" x="20.770918"/>
    <rect height="4.242641" stroke="#fff" stroke-width="1.01696134" fill="#fff" style="color:#000000" fill-rule="evenodd" transform="matrix(1.025575 0 0 .942809 -.872158 .697549)" width="15.601009" opacity=".34857142" y="17.291361" x="16.451418"/>
    <rect height="4.242641" stroke="#acacac" stroke-width="1.02313101" fill="#c8c8c8" style="color:#000000" fill-rule="evenodd" transform="matrix(1.013244 0 0 .942809 -.15194 1.054691)" width="15.790874" y="16.382225" x="15.447355"/>
    <rect height="4.242641" stroke="#acacac" stroke-width="1.02313089" fill="#c8c8c8" style="color:#000000" fill-rule="evenodd" transform="matrix(1.013244 0 0 .942809 -.151932 .711545)" width="15.790874" y="10.382225" x="15.447355"/>
    <g fill-rule="evenodd" transform="matrix(.885784 0 0 .892968 2.129727 2.884785)">
     <circle cy="26.231213" stroke="#979797" stroke-width="1.44772947" fill="#c8c8c8" style="color:#000000" transform="matrix(.779806 0 0 .773527 -34.68981 5.595099)" r="2.171828" d="m 68.185294,26.231213 a 2.171828,2.171828 0 0 1 -2.171828,2.171828 2.171828,2.171828 0 0 1 -2.171828,-2.171828 2.171828,2.171828 0 0 1 2.171828,-2.171828 2.171828,2.171828 0 0 1 2.171828,2.171828 z" cx="66.013466"/>
     <circle style="color:#000000" fill="#fff" transform="matrix(1.008603 0 0 1.000481 -.07396387 -.0549963)" cy="25.574614" cx="16.162441" r=".50507629" d="m 16.667518,25.574614 a 0.50507629,0.50507629 0 0 1 -0.505077,0.505076 0.50507629,0.50507629 0 0 1 -0.505076,-0.505076 0.50507629,0.50507629 0 0 1 0.505076,-0.505077 0.50507629,0.50507629 0 0 1 0.505077,0.505077 z"/>
    </g>
    <rect style="color:#000000" fill-rule="evenodd" transform="matrix(.989949 0 0 .98995 .120113 .482425)" height="10.101525" width="1.0101526" y="29.817253" x="19.071575" fill="url(#r)"/>
    <rect style="color:#000000" fill-rule="evenodd" transform="matrix(.989949 0 0 .98995 .140205 .482425)" height="10.101525" width="1.0101526" y="29.817253" x="21.071575" fill="url(#q)"/>
    <rect style="color:#000000" fill-rule="evenodd" transform="matrix(.989949 0 0 .98995 .160306 .482425)" height="10.101525" width="1.0101526" y="29.817253" x="23.071575" fill="url(#p)"/>
    <rect style="color:#000000" fill-rule="evenodd" transform="matrix(.989949 0 0 .98995 .180407 .482425)" height="10.101525" width="1.0101526" y="29.817253" x="25.071575" fill="url(#o)"/>
    <rect style="color:#000000" fill-rule="evenodd" transform="matrix(.989949 0 0 .98995 .200521 .482425)" height="10.101525" width="1.0101526" y="29.817253" x="27.071575" fill="url(#n)"/>
    <rect opacity=".54285709" style="color:#000000" fill-rule="evenodd" transform="matrix(.989949 0 0 .98995 .220623 .482425)" height="10.101525" width="1.0101526" y="29.817253" x="29.071575" fill="url(#m)"/>
    <rect opacity=".16000001" style="color:#000000" fill-rule="evenodd" transform="matrix(.989949 0 0 .98995 .200001 .482425)" height="10.101525" width="1.0101526" y="29.817253" x="17.980711" fill="url(#l)"/>
    <rect opacity=".29142851" style="color:#000000" fill-rule="evenodd" transform="matrix(.989949 0 0 .98995 .220115 .482425)" height="10.101525" width="1.0101526" y="29.817253" x="19.980711" fill="url(#k)"/>
    <rect opacity=".29142851" style="color:#000000" fill-rule="evenodd" transform="matrix(.989949 0 0 .98995 .240217 .482425)" height="10.101525" width="1.0101526" y="29.817253" x="21.980711" fill="url(#j)"/>
    <rect opacity=".29142851" style="color:#000000" fill-rule="evenodd" transform="matrix(.989949 0 0 .98995 .260319 .482425)" height="10.101525" width="1.0101526" y="29.817253" x="23.980711" fill="url(#i)"/>
    <rect opacity=".29142851" style="color:#000000" fill-rule="evenodd" transform="matrix(.989949 0 0 .98995 .280409 .482425)" height="10.101525" width="1.0101526" y="29.817253" x="25.980711" fill="url(#h)"/>
    <rect opacity=".22857145" style="color:#000000" fill-rule="evenodd" transform="matrix(.989949 0 0 .98995 .30051 .482425)" height="10.101525" width="1.0101526" y="29.817253" x="27.980711" fill="url(#g)"/>
   </g>
  </g>
  <g transform="translate(0,8.5714284)">
   <g transform="matrix(1.1007641,0,0,1.1007641,-48.845802,-12.718226)">
    <g transform="matrix(.92559524 0 0 1.0081037 -34.86708 -27.565093)">
     <ellipse d="m -81,6 a 21,4 0 0 1 -21,4 21,4 0 0 1 -21,-4 21,4 0 0 1 21,-4 21,4 0 0 1 21,4 z" clip-path="url(#bc)" fill-opacity=".8" rx="21" transform="matrix(1.047619,0,0,1.375,665.44359,80.27942)" ry="4" filter="url(#ba)" cy="6" cx="-102" fill="#2e3436"/>
     <path fill="url(#aj)" d="m558.58534 74.529463c-11.32184 0-20.5 2.302535-20.5 5.142857v7.714286c0 2.840323 9.17816 5.142857 20.5 5.142857 11.32183 0 20.5-2.302534 20.5-5.142857v-7.714286c0-2.840322-9.17817-5.142857-20.5-5.142857z"/>
     <path d="m538.2427 78.52942c-0.10465 0.210567-0.15625 0.438571-0.15625 0.65625v8.1875c0 2.840323 9.17816 5.15625 20.5 5.15625s20.5-2.315927 20.5-5.15625v-8.1875c0-0.217679-0.0516-0.445683-0.15625-0.65625-1.26084 2.536959-9.8896 4.5-20.34375 4.5s-19.08291-1.963041-20.34375-4.5z" fill="url(#ai)"/>
     <path style="color:#000000;text-indent:0;block-progression:tb;text-decoration-line:none;enable-background:accumulate;text-transform:none" d="m558.58645 75.02942c-5.62377 0-10.69706 0.58515-14.34375 1.5-1.82335 0.457425-3.31556 0.958477-4.28125 1.53125s-1.375 1.160633-1.375 1.625v7.6875c0 0.464367 0.40931 1.052227 1.375 1.625s2.4579 1.073826 4.28125 1.53125c3.64669 0.91485 8.71998 1.5 14.34375 1.5s10.69706-0.58515 14.34375-1.5c1.82335-0.457424 3.31556-0.958477 4.28125-1.53125s1.375-1.160633 1.375-1.625v-7.6875c0-0.464367-0.40931-1.052227-1.375-1.625s-2.4579-1.073825-4.28125-1.53125c-3.64669-0.91485-8.71998-1.5-14.34375-1.5zm0 1c5.54004 0 10.54795 0.487269 14.0625 1.375 1.75728 0.443866 3.11655 0.947245 3.9375 1.4375s1 0.8397 1 0.8125v7.75c0-0.02719-0.17905 0.322245-1 0.8125s-2.18022 0.993634-3.9375 1.4375c-3.51455 0.88773-8.52246 1.375-14.0625 1.375s-10.54795-0.48727-14.0625-1.375c-1.75728-0.443866-3.11655-0.947245-3.9375-1.4375s-1-0.8397-1-0.8125v-7.75c0 0.02719 0.17905-0.322245 1-0.8125s2.18022-0.993634 3.9375-1.4375c3.51455-0.887731 8.52246-1.375 14.0625-1.375z" fill="url(#ah)"/>
     <path d="m558.58534 74.529463c-11.32184 0-20.5 2.302535-20.5 5.142857v7.714286c0 2.840323 9.17816 5.142857 20.5 5.142857 11.32183 0 20.5-2.302534 20.5-5.142857v-7.714286c0-2.840322-9.17817-5.142857-20.5-5.142857z" stroke="#193965" stroke-width=".99999994" fill="none"/>
     <path d="m539.58645 79.81067v1c3.04999 1.880266 10.40953 3.21875 19 3.21875s15.95001-1.338484 19-3.21875v-1c-3.04999 1.880266-10.40953 3.21875-19 3.21875s-15.95001-1.338484-19-3.21875z" fill="url(#ag)"/>
    </g>
    <g transform="matrix(.92559524 0 0 1.0081037 -34.86708 -26.484982)">
     <path fill="url(#af)" d="m558.58534 62.529463c-11.32184 0-20.5 2.302535-20.5 5.142857v7.714286c0 2.840323 9.17816 5.142857 20.5 5.142857 11.32183 0 20.5-2.302534 20.5-5.142857v-7.714286c0-2.840322-9.17817-5.142857-20.5-5.142857z"/>
     <path d="m538.2427 66.52942c-0.10465 0.210567-0.15625 0.438571-0.15625 0.65625v8.1875c0 2.840323 9.17816 5.15625 20.5 5.15625s20.5-2.315927 20.5-5.15625v-8.1875c0-0.217679-0.0516-0.445683-0.15625-0.65625-1.26084 2.536959-9.8896 4.5-20.34375 4.5s-19.08291-1.963041-20.34375-4.5z" fill="url(#ae)"/>
     <path style="color:#000000;text-indent:0;block-progression:tb;text-decoration-line:none;enable-background:accumulate;text-transform:none" d="m558.58645 63.02942c-5.62377 0-10.69706 0.58515-14.34375 1.5-1.82335 0.457425-3.31556 0.958477-4.28125 1.53125s-1.375 1.160633-1.375 1.625v7.6875c0 0.464367 0.40931 1.052227 1.375 1.625s2.4579 1.073826 4.28125 1.53125c3.64669 0.91485 8.71998 1.5 14.34375 1.5s10.69706-0.58515 14.34375-1.5c1.82335-0.457424 3.31556-0.958477 4.28125-1.53125s1.375-1.160633 1.375-1.625v-7.6875c0-0.464367-0.40931-1.052227-1.375-1.625s-2.4579-1.073825-4.28125-1.53125c-3.64669-0.91485-8.71998-1.5-14.34375-1.5zm0 1c5.54004 0 10.54795 0.487269 14.0625 1.375 1.75728 0.443866 3.11655 0.947245 3.9375 1.4375s1 0.8397 1 0.8125v7.75c0-0.02719-0.17905 0.322245-1 0.8125s-2.18022 0.993634-3.9375 1.4375c-3.51455 0.88773-8.52246 1.375-14.0625 1.375s-10.54795-0.48727-14.0625-1.375c-1.75728-0.443866-3.11655-0.947245-3.9375-1.4375s-1-0.8397-1-0.8125v-7.75c0 0.02719 0.17905-0.322245 1-0.8125s2.18022-0.993634 3.9375-1.4375c3.51455-0.887731 8.52246-1.375 14.0625-1.375z" fill="url(#ad)"/>
     <path d="m558.58534 62.529463c-11.32184 0-20.5 2.302535-20.5 5.142857v7.714286c0 2.840323 9.17816 5.142857 20.5 5.142857 11.32183 0 20.5-2.302534 20.5-5.142857v-7.714286c0-2.840322-9.17817-5.142857-20.5-5.142857z" stroke="#193965" stroke-width=".99999994" fill="none"/>
     <path d="m539.58645 67.81067v1c3.04999 1.880266 10.40953 3.21875 19 3.21875s15.95001-1.338484 19-3.21875v-1c-3.04999 1.880266-10.40953 3.21875-19 3.21875s-15.95001-1.338484-19-3.21875z" fill="url(#ac)"/>
    </g>
    <g transform="matrix(.92559524 0 0 1.0081037 -34.86708 -25.49488)">
     <path d="m558.58534 50.529463c-11.32184 0-20.5 2.302535-20.5 5.142857v7.714286c0 2.840323 9.17816 5.142857 20.5 5.142857 11.32183 0 20.5-2.302534 20.5-5.142857v-7.714286c0-2.840322-9.17817-5.142857-20.5-5.142857z" stroke="#193965" stroke-width=".99999994" fill="none"/>
     <g>
      <path d="m558.58534 50.529463c-11.32184 0-20.5 2.302535-20.5 5.142857v7.714286c0 2.840323 9.17816 5.142857 20.5 5.142857 11.32183 0 20.5-2.302534 20.5-5.142857v-7.714286c0-2.840322-9.17817-5.142857-20.5-5.142857z" fill="url(#ab)"/>
      <path d="m538.2427 54.52942c-0.10465 0.210567-0.15625 0.438571-0.15625 0.65625v8.1875c0 2.840323 9.17816 5.15625 20.5 5.15625s20.5-2.315927 20.5-5.15625v-8.1875c0-0.217679-0.0516-0.445683-0.15625-0.65625-1.26084 2.536959-9.8896 4.5-20.34375 4.5s-19.08291-1.963041-20.34375-4.5z" fill="url(#aa)"/>
      <path style="color:#000000;text-indent:0;block-progression:tb;text-decoration-line:none;enable-background:accumulate;text-transform:none" d="m558.58645 51.02942c-5.62377 0-10.69706 0.58515-14.34375 1.5-1.82335 0.457425-3.31556 0.958477-4.28125 1.53125s-1.375 1.160633-1.375 1.625v7.6875c0 0.464367 0.40931 1.052227 1.375 1.625s2.4579 1.073826 4.28125 1.53125c3.64669 0.91485 8.71998 1.5 14.34375 1.5s10.69706-0.58515 14.34375-1.5c1.82335-0.457424 3.31556-0.958477 4.28125-1.53125s1.375-1.160633 1.375-1.625v-7.6875c0-0.464367-0.40931-1.052227-1.375-1.625s-2.4579-1.073825-4.28125-1.53125c-3.64669-0.91485-8.71998-1.5-14.34375-1.5zm0 1c5.54004 0 10.54795 0.487269 14.0625 1.375 1.75728 0.443866 3.11655 0.947245 3.9375 1.4375s1 0.8397 1 0.8125v7.75c0-0.02719-0.17905 0.322245-1 0.8125s-2.18022 0.993634-3.9375 1.4375c-3.51455 0.88773-8.52246 1.375-14.0625 1.375s-10.54795-0.48727-14.0625-1.375c-1.75728-0.443866-3.11655-0.947245-3.9375-1.4375s-1-0.8397-1-0.8125v-7.75c0 0.02719 0.17905-0.322245 1-0.8125s2.18022-0.993634 3.9375-1.4375c3.51455-0.887731 8.52246-1.375 14.0625-1.375z" fill="url(#z)"/>
      <path d="m539.58645 55.81067v1c3.04999 1.880266 10.40953 3.21875 19 3.21875s15.95001-1.338484 19-3.21875v-1c-3.04999 1.880266-10.40953 3.21875-19 3.21875s-15.95001-1.338484-19-3.21875z" fill="url(#y)"/>
     </g>
    </g>
   </g>
   <g filter="url(#ax)" transform="matrix(.14912227 0 0 .14912227 390.41527 19.67278)">
    <polygon points="6.383 126.065 215.396 126.065 215.396 48.685 201.51 48.685 201.51 10.92 20.542 10.92 20.542 48.685 6.383 48.685" fill="#f00" transform="translate(506.6115,71.192824)"/>
    <path fill="#eb1019" d="m509.2165 198.90182v-82.803h14.16v-37.763996h188.522v37.763996h13.885v82.803h-216.567zm5.905-2.973 203.994 0.179-0.884-72.453h-13.89v-37.765996h-173.413v37.765996h-14.16l-1.381 69.877-0.266 2.397z"/>
    <polygon points="36.422 32.574 55.382 26.136 55.305 0.438 29.972 6.829 29.972 23.848" fill="#fff" transform="translate(506.6115,71.192824)"/>
    <polygon transform="translate(506.6115,71.192824)" stroke="#bd101d" points="187.977 92.94 188.003 126.69 33.813 126.69 33.899 93.641 76.686 103.309" fill="#bd101d"/>
    <polygon transform="translate(506.6115,71.192824)" stroke="#bd101d" points="33.871 74.63 73.602 86.029 187.13 75.945 187.13 52.758 161.239 69.688 149.609 64.863 125.424 48.352 96.529 57.145 33.871 52.401" fill="#bd101d"/>
    <polygon points="72.766 122.681 76.123 136.549 102.592 136.549 89.863 83.941 125.821 60.593 145.377 77.117 150.128 75.256 151.931 80.169 187.13 77.01 184.075 69.212 164.271 64.369 128.412 35.152 89.34 49.973 77.334 34.173 95.421 15.785 112.66 15.785 119.461 21.515 119.461 15.785 133.01 15.785 129.737 8.181 90.051 1.897 53.414 25.361 16.749 37.652 9.587 45.228 9.587 65.542 19.699 69.846 19.699 58.113 24.002 61.485 24.002 53.469 33.871 53.467 52.137 80.971 58.873 82.808 68.02 120.713" fill="#fff" transform="translate(506.6115,71.192824)"/>
   </g>
  </g>
  <text opacity=".6" style="word-spacing:0px;letter-spacing:0px" font-size="4px" line-height="125%" y="77.005051" x="455.39432" font-family="Consolas" xml:space="preserve" fill="#000000"><tspan opacity=".8" font-size="8px" y="77.005051" x="455.39432" font-family="Consolas" fill="#000000">0.0.0.0:5984</tspan></text>
  <rect stroke-linejoin="round" ry="4.1603441" height="85.287056" width="117.78705" stroke="#000" y="-1.8976389" x="547.74927" stroke-width=".42344266" fill="#fff"/>
  <text style="word-spacing:0px;letter-spacing:0px" font-size="15.095541px" line-height="125%" y="12.634061" x="586.935" font-family="Consolas" xml:space="preserve" fill="#000000"><tspan y="12.634061" x="586.935">CouchDB-B</tspan></text>
  <g transform="matrix(-1.6478168,0,0,1.6478168,1617.2693,-93.582806)">
   <g transform="matrix(.0142075 0 0 .02086758 590.75682 110.45328)">
    <rect opacity=".40206185" style="color:#000000" height="478.35718" width="1339.6335" y="-150.69685" x="-1559.2523" fill="url(#s)"/>
    <path opacity=".40206185" style="color:#000000" d="m-219.61876-150.68038v478.33079c142.874166 0.90045 345.40022-107.16966 345.40014-239.196175 0-132.026537-159.436816-239.134595-345.40014-239.134615z" fill="url(#f)"/>
    <path opacity=".40206185" style="color:#000000" d="m-1559.2523-150.68038v478.33079c-142.8742 0.90045-345.4002-107.16966-345.4002-239.196175 0-132.026537 159.4368-239.134595 345.4002-239.134615z" fill="url(#e)"/>
   </g>
   <g transform="translate(554.21431,72.29075)">
    <path stroke-linejoin="round" d="m12.466718 7.9979592v33.5370658h21.962152v-33.7390963l-4.04061-4.2426407h-14.082962l-3.83858 4.4446712z" fill-rule="evenodd" transform="matrix(1.001723 0 0 1.000481 .01180323 -.0549963)" stroke="#5e5e5e" stroke-linecap="round" stroke-width=".99889958px" fill="url(#as)"/>
    <path d="m16.428571 4-3.428571 4.8571429h20.285714l-3.714285-4.7142858-13.142858-0.1428571z" fill-rule="evenodd" fill-opacity=".65536726" transform="matrix(1.035211 0 0 1.029412 -.457741 -.117647)" fill="#fff"/>
    <rect height="4.242641" stroke="#fff" stroke-width="1.01696146" fill="#fff" style="color:#000000" fill-rule="evenodd" transform="matrix(1.025575 0 0 .942809 -.872163 .354403)" width="15.601009" opacity=".34857142" y="11.291361" x="16.451418"/>
    <path d="m13.465157 8.6221002v31.7810238h19.822439v-31.9645649l-3.670822-3.8543633h-12.664336l-3.487281 4.0379044z" transform="matrix(1.008958 0 0 1.005055 -.08577756 -.107362)" stroke="#fff" stroke-width=".99304473" fill="none"/>
    <rect height="5.0418525" stroke="url(#a)" stroke-width="1.11743951" fill="url(#a)" style="color:#000000" fill-rule="evenodd" transform="matrix(1.009445 0 0 .793359 -.745308 5.309442)" width="10.897081" opacity=".52571429" y="23.558765" x="21.541845"/>
    <rect height="4.242641" stroke="#acacac" stroke-width="1.00375366" fill="#c8c8c8" style="color:#000000" fill-rule="evenodd" transform="matrix(1.052742 0 0 .942809 -1.366425 1.388024)" width="10.4489" y="23.453293" x="20.770918"/>
    <rect height="4.242641" stroke="#fff" stroke-width="1.01696134" fill="#fff" style="color:#000000" fill-rule="evenodd" transform="matrix(1.025575 0 0 .942809 -.872158 .697549)" width="15.601009" opacity=".34857142" y="17.291361" x="16.451418"/>
    <rect height="4.242641" stroke="#acacac" stroke-width="1.02313101" fill="#c8c8c8" style="color:#000000" fill-rule="evenodd" transform="matrix(1.013244 0 0 .942809 -.15194 1.054691)" width="15.790874" y="16.382225" x="15.447355"/>
    <rect height="4.242641" stroke="#acacac" stroke-width="1.02313089" fill="#c8c8c8" style="color:#000000" fill-rule="evenodd" transform="matrix(1.013244 0 0 .942809 -.151932 .711545)" width="15.790874" y="10.382225" x="15.447355"/>
    <g fill-rule="evenodd" transform="matrix(.885784 0 0 .892968 2.129727 2.884785)">
     <circle cy="26.231213" stroke="#979797" stroke-width="1.44772947" fill="#c8c8c8" style="color:#000000" transform="matrix(.779806 0 0 .773527 -34.68981 5.595099)" r="2.171828" d="m 68.185294,26.231213 a 2.171828,2.171828 0 0 1 -2.171828,2.171828 2.171828,2.171828 0 0 1 -2.171828,-2.171828 2.171828,2.171828 0 0 1 2.171828,-2.171828 2.171828,2.171828 0 0 1 2.171828,2.171828 z" cx="66.013466"/>
     <circle style="color:#000000" fill="#fff" transform="matrix(1.008603 0 0 1.000481 -.07396387 -.0549963)" cy="25.574614" cx="16.162441" r=".50507629" d="m 16.667518,25.574614 a 0.50507629,0.50507629 0 0 1 -0.505077,0.505076 0.50507629,0.50507629 0 0 1 -0.505076,-0.505076 0.50507629,0.50507629 0 0 1 0.505076,-0.505077 0.50507629,0.50507629 0 0 1 0.505077,0.505077 z"/>
    </g>
    <rect style="color:#000000" fill-rule="evenodd" transform="matrix(.989949 0 0 .98995 .120113 .482425)" height="10.101525" width="1.0101526" y="29.817253" x="19.071575" fill="url(#r)"/>
    <rect style="color:#000000" fill-rule="evenodd" transform="matrix(.989949 0 0 .98995 .140205 .482425)" height="10.101525" width="1.0101526" y="29.817253" x="21.071575" fill="url(#q)"/>
    <rect style="color:#000000" fill-rule="evenodd" transform="matrix(.989949 0 0 .98995 .160306 .482425)" height="10.101525" width="1.0101526" y="29.817253" x="23.071575" fill="url(#p)"/>
    <rect style="color:#000000" fill-rule="evenodd" transform="matrix(.989949 0 0 .98995 .180407 .482425)" height="10.101525" width="1.0101526" y="29.817253" x="25.071575" fill="url(#o)"/>
    <rect style="color:#000000" fill-rule="evenodd" transform="matrix(.989949 0 0 .98995 .200521 .482425)" height="10.101525" width="1.0101526" y="29.817253" x="27.071575" fill="url(#n)"/>
    <rect opacity=".54285709" style="color:#000000" fill-rule="evenodd" transform="matrix(.989949 0 0 .98995 .220623 .482425)" height="10.101525" width="1.0101526" y="29.817253" x="29.071575" fill="url(#m)"/>
    <rect opacity=".16000001" style="color:#000000" fill-rule="evenodd" transform="matrix(.989949 0 0 .98995 .200001 .482425)" height="10.101525" width="1.0101526" y="29.817253" x="17.980711" fill="url(#l)"/>
    <rect opacity=".29142851" style="color:#000000" fill-rule="evenodd" transform="matrix(.989949 0 0 .98995 .220115 .482425)" height="10.101525" width="1.0101526" y="29.817253" x="19.980711" fill="url(#k)"/>
    <rect opacity=".29142851" style="color:#000000" fill-rule="evenodd" transform="matrix(.989949 0 0 .98995 .240217 .482425)" height="10.101525" width="1.0101526" y="29.817253" x="21.980711" fill="url(#j)"/>
    <rect opacity=".29142851" style="color:#000000" fill-rule="evenodd" transform="matrix(.989949 0 0 .98995 .260319 .482425)" height="10.101525" width="1.0101526" y="29.817253" x="23.980711" fill="url(#i)"/>
    <rect opacity=".29142851" style="color:#000000" fill-rule="evenodd" transform="matrix(.989949 0 0 .98995 .280409 .482425)" height="10.101525" width="1.0101526" y="29.817253" x="25.980711" fill="url(#h)"/>
    <rect opacity=".22857145" style="color:#000000" fill-rule="evenodd" transform="matrix(.989949 0 0 .98995 .30051 .482425)" height="10.101525" width="1.0101526" y="29.817253" x="27.980711" fill="url(#g)"/>
   </g>
  </g>
  <g transform="matrix(-1.1007641,0,0,1.1007641,1125.3857,-4.1467996)">
   <g transform="matrix(.92559524 0 0 1.0081037 -34.86708 -27.565093)">
    <ellipse d="m -81,6 a 21,4 0 0 1 -21,4 21,4 0 0 1 -21,-4 21,4 0 0 1 21,-4 21,4 0 0 1 21,4 z" clip-path="url(#bb)" fill-opacity=".8" rx="21" transform="matrix(1.047619,0,0,1.375,665.44359,80.27942)" ry="4" filter="url(#az)" cy="6" cx="-102" fill="#2e3436"/>
    <path d="m558.58534 74.529463c-11.32184 0-20.5 2.302535-20.5 5.142857v7.714286c0 2.840323 9.17816 5.142857 20.5 5.142857 11.32183 0 20.5-2.302534 20.5-5.142857v-7.714286c0-2.840322-9.17817-5.142857-20.5-5.142857z" fill="url(#aj)"/>
    <path d="m538.2427 78.52942c-0.10465 0.210567-0.15625 0.438571-0.15625 0.65625v8.1875c0 2.840323 9.17816 5.15625 20.5 5.15625s20.5-2.315927 20.5-5.15625v-8.1875c0-0.217679-0.0516-0.445683-0.15625-0.65625-1.26084 2.536959-9.8896 4.5-20.34375 4.5s-19.08291-1.963041-20.34375-4.5z" fill="url(#ai)"/>
    <path style="color:#000000;text-indent:0;block-progression:tb;text-decoration-line:none;enable-background:accumulate;text-transform:none" d="m558.58645 75.02942c-5.62377 0-10.69706 0.58515-14.34375 1.5-1.82335 0.457425-3.31556 0.958477-4.28125 1.53125s-1.375 1.160633-1.375 1.625v7.6875c0 0.464367 0.40931 1.052227 1.375 1.625s2.4579 1.073826 4.28125 1.53125c3.64669 0.91485 8.71998 1.5 14.34375 1.5s10.69706-0.58515 14.34375-1.5c1.82335-0.457424 3.31556-0.958477 4.28125-1.53125s1.375-1.160633 1.375-1.625v-7.6875c0-0.464367-0.40931-1.052227-1.375-1.625s-2.4579-1.073825-4.28125-1.53125c-3.64669-0.91485-8.71998-1.5-14.34375-1.5zm0 1c5.54004 0 10.54795 0.487269 14.0625 1.375 1.75728 0.443866 3.11655 0.947245 3.9375 1.4375s1 0.8397 1 0.8125v7.75c0-0.02719-0.17905 0.322245-1 0.8125s-2.18022 0.993634-3.9375 1.4375c-3.51455 0.88773-8.52246 1.375-14.0625 1.375s-10.54795-0.48727-14.0625-1.375c-1.75728-0.443866-3.11655-0.947245-3.9375-1.4375s-1-0.8397-1-0.8125v-7.75c0 0.02719 0.17905-0.322245 1-0.8125s2.18022-0.993634 3.9375-1.4375c3.51455-0.887731 8.52246-1.375 14.0625-1.375z" fill="url(#ah)"/>
    <path d="m558.58534 74.529463c-11.32184 0-20.5 2.302535-20.5 5.142857v7.714286c0 2.840323 9.17816 5.142857 20.5 5.142857 11.32183 0 20.5-2.302534 20.5-5.142857v-7.714286c0-2.840322-9.17817-5.142857-20.5-5.142857z" stroke="#193965" stroke-width=".99999994" fill="none"/>
    <path d="m539.58645 79.81067v1c3.04999 1.880266 10.40953 3.21875 19 3.21875s15.95001-1.338484 19-3.21875v-1c-3.04999 1.880266-10.40953 3.21875-19 3.21875s-15.95001-1.338484-19-3.21875z" fill="url(#ag)"/>
   </g>
   <g transform="matrix(.92559524 0 0 1.0081037 -34.86708 -26.484982)">
    <path d="m558.58534 62.529463c-11.32184 0-20.5 2.302535-20.5 5.142857v7.714286c0 2.840323 9.17816 5.142857 20.5 5.142857 11.32183 0 20.5-2.302534 20.5-5.142857v-7.714286c0-2.840322-9.17817-5.142857-20.5-5.142857z" fill="url(#af)"/>
    <path d="m538.2427 66.52942c-0.10465 0.210567-0.15625 0.438571-0.15625 0.65625v8.1875c0 2.840323 9.17816 5.15625 20.5 5.15625s20.5-2.315927 20.5-5.15625v-8.1875c0-0.217679-0.0516-0.445683-0.15625-0.65625-1.26084 2.536959-9.8896 4.5-20.34375 4.5s-19.08291-1.963041-20.34375-4.5z" fill="url(#ae)"/>
    <path style="color:#000000;text-indent:0;block-progression:tb;text-decoration-line:none;enable-background:accumulate;text-transform:none" d="m558.58645 63.02942c-5.62377 0-10.69706 0.58515-14.34375 1.5-1.82335 0.457425-3.31556 0.958477-4.28125 1.53125s-1.375 1.160633-1.375 1.625v7.6875c0 0.464367 0.40931 1.052227 1.375 1.625s2.4579 1.073826 4.28125 1.53125c3.64669 0.91485 8.71998 1.5 14.34375 1.5s10.69706-0.58515 14.34375-1.5c1.82335-0.457424 3.31556-0.958477 4.28125-1.53125s1.375-1.160633 1.375-1.625v-7.6875c0-0.464367-0.40931-1.052227-1.375-1.625s-2.4579-1.073825-4.28125-1.53125c-3.64669-0.91485-8.71998-1.5-14.34375-1.5zm0 1c5.54004 0 10.54795 0.487269 14.0625 1.375 1.75728 0.443866 3.11655 0.947245 3.9375 1.4375s1 0.8397 1 0.8125v7.75c0-0.02719-0.17905 0.322245-1 0.8125s-2.18022 0.993634-3.9375 1.4375c-3.51455 0.88773-8.52246 1.375-14.0625 1.375s-10.54795-0.48727-14.0625-1.375c-1.75728-0.443866-3.11655-0.947245-3.9375-1.4375s-1-0.8397-1-0.8125v-7.75c0 0.02719 0.17905-0.322245 1-0.8125s2.18022-0.993634 3.9375-1.4375c3.51455-0.887731 8.52246-1.375 14.0625-1.375z" fill="url(#ad)"/>
    <path d="m558.58534 62.529463c-11.32184 0-20.5 2.302535-20.5 5.142857v7.714286c0 2.840323 9.17816 5.142857 20.5 5.142857 11.32183 0 20.5-2.302534 20.5-5.142857v-7.714286c0-2.840322-9.17817-5.142857-20.5-5.142857z" stroke="#193965" stroke-width=".99999994" fill="none"/>
    <path d="m539.58645 67.81067v1c3.04999 1.880266 10.40953 3.21875 19 3.21875s15.95001-1.338484 19-3.21875v-1c-3.04999 1.880266-10.40953 3.21875-19 3.21875s-15.95001-1.338484-19-3.21875z" fill="url(#ac)"/>
   </g>
   <g transform="matrix(.92559524 0 0 1.0081037 -34.86708 -25.49488)">
    <path d="m558.58534 50.529463c-11.32184 0-20.5 2.302535-20.5 5.142857v7.714286c0 2.840323 9.17816 5.142857 20.5 5.142857 11.32183 0 20.5-2.302534 20.5-5.142857v-7.714286c0-2.840322-9.17817-5.142857-20.5-5.142857z" stroke="#193965" stroke-width=".99999994" fill="none"/>
    <g>
     <path fill="url(#ab)" d="m558.58534 50.529463c-11.32184 0-20.5 2.302535-20.5 5.142857v7.714286c0 2.840323 9.17816 5.142857 20.5 5.142857 11.32183 0 20.5-2.302534 20.5-5.142857v-7.714286c0-2.840322-9.17817-5.142857-20.5-5.142857z"/>
     <path d="m538.2427 54.52942c-0.10465 0.210567-0.15625 0.438571-0.15625 0.65625v8.1875c0 2.840323 9.17816 5.15625 20.5 5.15625s20.5-2.315927 20.5-5.15625v-8.1875c0-0.217679-0.0516-0.445683-0.15625-0.65625-1.26084 2.536959-9.8896 4.5-20.34375 4.5s-19.08291-1.963041-20.34375-4.5z" fill="url(#aa)"/>
     <path style="color:#000000;text-indent:0;block-progression:tb;text-decoration-line:none;enable-background:accumulate;text-transform:none" d="m558.58645 51.02942c-5.62377 0-10.69706 0.58515-14.34375 1.5-1.82335 0.457425-3.31556 0.958477-4.28125 1.53125s-1.375 1.160633-1.375 1.625v7.6875c0 0.464367 0.40931 1.052227 1.375 1.625s2.4579 1.073826 4.28125 1.53125c3.64669 0.91485 8.71998 1.5 14.34375 1.5s10.69706-0.58515 14.34375-1.5c1.82335-0.457424 3.31556-0.958477 4.28125-1.53125s1.375-1.160633 1.375-1.625v-7.6875c0-0.464367-0.40931-1.052227-1.375-1.625s-2.4579-1.073825-4.28125-1.53125c-3.64669-0.91485-8.71998-1.5-14.34375-1.5zm0 1c5.54004 0 10.54795 0.487269 14.0625 1.375 1.75728 0.443866 3.11655 0.947245 3.9375 1.4375s1 0.8397 1 0.8125v7.75c0-0.02719-0.17905 0.322245-1 0.8125s-2.18022 0.993634-3.9375 1.4375c-3.51455 0.88773-8.52246 1.375-14.0625 1.375s-10.54795-0.48727-14.0625-1.375c-1.75728-0.443866-3.11655-0.947245-3.9375-1.4375s-1-0.8397-1-0.8125v-7.75c0 0.02719 0.17905-0.322245 1-0.8125s2.18022-0.993634 3.9375-1.4375c3.51455-0.887731 8.52246-1.375 14.0625-1.375z" fill="url(#z)"/>
     <path d="m539.58645 55.81067v1c3.04999 1.880266 10.40953 3.21875 19 3.21875s15.95001-1.338484 19-3.21875v-1c-3.04999 1.880266-10.40953 3.21875-19 3.21875s-15.95001-1.338484-19-3.21875z" fill="url(#y)"/>
    </g>
   </g>
  </g>
  <g filter="url(#aw)" transform="matrix(.14912227 0 0 .14912227 501.95865 28.244206)">
   <polygon points="20.542 10.92 20.542 48.685 6.383 48.685 6.383 126.065 215.396 126.065 215.396 48.685 201.51 48.685 201.51 10.92" fill="#f00" transform="translate(506.6115,71.192824)"/>
   <path fill="#eb1019" d="m509.2165 198.90182v-82.803h14.16v-37.763996h188.522v37.763996h13.885v82.803h-216.567zm5.905-2.973 203.994 0.179-0.884-72.453h-13.89v-37.765996h-173.413v37.765996h-14.16l-1.381 69.877-0.266 2.397z"/>
   <polygon points="55.382 26.136 55.305 0.438 29.972 6.829 29.972 23.848 36.422 32.574" fill="#fff" transform="translate(506.6115,71.192824)"/>
   <polygon transform="translate(506.6115,71.192824)" stroke="#bd101d" points="188.003 126.69 33.813 126.69 33.899 93.641 76.686 103.309 187.977 92.94" fill="#bd101d"/>
   <polygon transform="translate(506.6115,71.192824)" stroke="#bd101d" points="187.13 52.758 161.239 69.688 149.609 64.863 125.424 48.352 96.529 57.145 33.871 52.401 33.871 74.63 73.602 86.029 187.13 75.945" fill="#bd101d"/>
   <polygon points="53.414 25.361 16.749 37.652 9.587 45.228 9.587 65.542 19.699 69.846 19.699 58.113 24.002 61.485 24.002 53.469 33.871 53.467 52.137 80.971 58.873 82.808 68.02 120.713 72.766 122.681 76.123 136.549 102.592 136.549 89.863 83.941 125.821 60.593 145.377 77.117 150.128 75.256 151.931 80.169 187.13 77.01 184.075 69.212 164.271 64.369 128.412 35.152 89.34 49.973 77.334 34.173 95.421 15.785 112.66 15.785 119.461 21.515 119.461 15.785 133.01 15.785 129.737 8.181 90.051 1.897" fill="#fff" transform="translate(506.6115,71.192824)"/>
  </g>
  <text opacity=".6" style="word-spacing:0px;letter-spacing:0px" font-size="4px" line-height="125%" y="77.005051" x="568.14166" font-family="Consolas" xml:space="preserve" fill="#000000"><tspan opacity=".8" font-size="8px" y="77.005051" x="568.14166" font-family="Consolas" fill="#000000">0.0.0.0:5984</tspan></text>
  <g transform="translate(9.0913729,67.175144)">
   <path style="color:#000000" d="m4.8125 29.363-3.3125 13.219c-0.70396 1.954 0.0843 2.946 0.625 3.125h43.125c0.788-0.629 1.614-1.476 1.125-3.25l-2.5-12.969c-0.066-0.356-0.352-0.548-0.75-0.656l-36.875 0.031c-0.7208-0.043-1.0996-0.026-1.4375 0.5z" fill-rule="evenodd" transform="matrix(1.8051459,0,0,2.0015893,321.86506,106.47336)" filter="url(#ay)"/>
   <rect stroke-linejoin="round" style="color:#000000" fill-rule="evenodd" rx=".99059033" ry=".87476867" height="48.849518" width="69.293854" stroke="#202526" stroke-linecap="square" y="120.64875" x="330.31158" stroke-width="1.77776825" fill="url(#aq)"/>
   <path stroke-linejoin="round" style="color:#000000" d="m330.84777 167.12868-5.88886 23.50032c-0.39288 1.08977-0.87022 2.11376-0.48995 2.77332l1.60106 2.7822h76.66626l2.02487-2.54932c0.55467-0.69688 0.34489-1.88621-0.0249-3.22842l-4.44442-23.05588c-0.11733-0.63466-0.62577-0.976-1.33332-1.16622l-65.55521 0.0551c-1.28141-0.0764-1.95483-0.0462-2.55554 0.88889z" fill-rule="evenodd" stroke="#202526" stroke-linecap="square" stroke-width="1.77776825" fill="#2e3436"/>
   <path opacity=".85" stroke-linejoin="round" style="color:#000000" d="m334.29255 169.07711-1.71572 11.14128c-1.1328 1.64621 0.13546 2.48176 1.0055 2.63287h49.20685l0.15645 1.88621h14.68258c1.26755-0.52977 2.59555-1.24443 1.80977-2.73954l-2.29332-12.81593c-0.10667-0.30044-0.56711-0.46222-1.2071-0.55289l-59.33302 0.0267c-1.15946-0.0373-1.76888-0.0231-2.31252 0.42133z" stroke="#171b1c" stroke-linecap="square" stroke-width=".88888413" fill="none"/>
   <g stroke-linejoin="round" style="color:#000000" fill-rule="evenodd" transform="matrix(1.7777683,0,0,1.7777683,320.40658,113.41501)" stroke="#222728" stroke-linecap="square" stroke-width=".48863" fill="#555753">
    <rect style="color:#000000" height="1.5114" width="2.9282" y="33.123001" x="7.7452002"/>
    <rect style="color:#000000" height="1.5114" width="2.1327" y="33.123001" x="10.989"/>
    <rect style="color:#000000" height="1.5114" width="2.1327" y="33.123001" x="13.475"/>
    <rect style="color:#000000" height="1.5114" width="2.1327" y="33.123001" x="15.906"/>
    <rect style="color:#000000" height="1.5114" width="2.1327" y="33.123001" x="18.513"/>
    <rect style="color:#000000" height="1.5114" width="2.1327" y="33.123001" x="20.988001"/>
    <rect style="color:#000000" height="1.5114" width="2.1327" y="33.123001" x="23.462999"/>
    <rect style="color:#000000" height="1.5114" width="2.1327" y="33.123001" x="26.07"/>
    <rect style="color:#000000" height="1.5114" width="2.1327" y="33.123001" x="28.59"/>
    <rect style="color:#000000" height="1.5114" width="2.1327" y="33.123001" x="31.063999"/>
    <rect style="color:#000000" height="1.5114" width="2.1327" y="33.123001" x="33.494999"/>
    <rect style="color:#000000" height="1.5114" width="2.1327" y="33.123001" x="36.014"/>
    <rect style="color:#000000" height="1.5114" width="2.1327" y="33.123001" x="38.488998"/>
    <rect style="color:#000000" height="1.5114" width="1.9139" y="33.123001" x="40.964001"/>
   </g>
   <rect stroke-linejoin="round" style="color:#000000" fill-rule="evenodd" height="2.686919" width="7.2483168" stroke="#222728" stroke-linecap="square" y="175.06998" x="334.01877" stroke-width=".86867094" fill="#555753"/>
   <rect stroke-linejoin="round" style="color:#000000" fill-rule="evenodd" height="2.686919" width="3.7914464" stroke="#222728" stroke-linecap="square" y="175.06998" x="341.82816" stroke-width=".86867094" fill="#555753"/>
   <rect stroke-linejoin="round" style="color:#000000" fill-rule="evenodd" height="2.686919" width="3.7914464" stroke="#222728" stroke-linecap="square" y="175.06998" x="346.24768" stroke-width=".86867094" fill="#555753"/>
   <rect stroke-linejoin="round" style="color:#000000" fill-rule="evenodd" height="2.686919" width="3.7914464" stroke="#222728" stroke-linecap="square" y="175.06998" x="350.56946" stroke-width=".86867094" fill="#555753"/>
   <rect stroke-linejoin="round" style="color:#000000" fill-rule="evenodd" height="2.686919" width="3.7914464" stroke="#222728" stroke-linecap="square" y="175.06998" x="355.20407" stroke-width=".86867094" fill="#555753"/>
   <rect stroke-linejoin="round" style="color:#000000" fill-rule="evenodd" height="2.686919" width="3.7914464" stroke="#222728" stroke-linecap="square" y="175.06998" x="359.60406" stroke-width=".86867094" fill="#555753"/>
   <rect stroke-linejoin="round" style="color:#000000" fill-rule="evenodd" height="2.686919" width="3.7914464" stroke="#222728" stroke-linecap="square" y="175.06998" x="364.00403" stroke-width=".86867094" fill="#555753"/>
   <rect stroke-linejoin="round" style="color:#000000" fill-rule="evenodd" height="2.686919" width="3.7914464" stroke="#222728" stroke-linecap="square" y="175.06998" x="368.63867" stroke-width=".86867094" fill="#555753"/>
   <rect stroke-linejoin="round" style="color:#000000" fill-rule="evenodd" height="2.686919" width="3.7914464" stroke="#222728" stroke-linecap="square" y="175.06998" x="373.11865" stroke-width=".86867094" fill="#555753"/>
   <rect stroke-linejoin="round" style="color:#000000" fill-rule="evenodd" height="2.686919" width="3.7914464" stroke="#222728" stroke-linecap="square" y="175.06998" x="377.51685" stroke-width=".86867094" fill="#555753"/>
   <rect stroke-linejoin="round" style="color:#000000" fill-rule="evenodd" height="2.686919" width="3.7914464" stroke="#222728" stroke-linecap="square" y="175.06998" x="381.83859" stroke-width=".86867094" fill="#555753"/>
   <rect stroke-linejoin="round" style="color:#000000" fill-rule="evenodd" height="2.686919" width="3.7914464" stroke="#222728" stroke-linecap="square" y="175.06998" x="386.3168" stroke-width=".86867094" fill="#555753"/>
   <rect stroke-linejoin="round" style="color:#000000" fill-rule="evenodd" height="2.686919" width="6.6198759" stroke="#222728" stroke-linecap="square" y="175.06998" x="390.40213" stroke-width=".86867094" fill="#545755"/>
   <rect stroke-linejoin="round" style="color:#000000" fill-rule="evenodd" rx=".64188099" ry=".6618098" height="37.390022" width="62.278782" stroke="#204a87" stroke-linecap="square" y="125.93459" x="333.81967" stroke-width="1.72164416" fill="url(#ap)"/>
   <rect stroke-linejoin="round" style="color:#000000" fill-rule="evenodd" height="2.686919" width="3.7914464" stroke="#222728" stroke-linecap="square" y="178.84062" x="342.51083" stroke-width=".86867094" fill="#555753"/>
   <rect stroke-linejoin="round" style="color:#000000" fill-rule="evenodd" height="2.686919" width="3.7914464" stroke="#222728" stroke-linecap="square" y="178.84062" x="347.17035" stroke-width=".86867094" fill="#555753"/>
   <rect stroke-linejoin="round" style="color:#000000" fill-rule="evenodd" height="2.686919" width="22.069216" stroke="#222728" stroke-linecap="square" y="178.84062" x="351.84412" stroke-width=".86867094" fill="#555753"/>
   <rect stroke-linejoin="round" style="color:#000000" fill-rule="evenodd" height="2.686919" width="3.7914464" stroke="#222728" stroke-linecap="square" y="178.84062" x="374.89285" stroke-width=".86867094" fill="#555753"/>
   <rect stroke-linejoin="round" style="color:#000000" fill-rule="evenodd" height="2.686919" width="3.7914464" stroke="#222728" stroke-linecap="square" y="178.84062" x="379.55951" stroke-width=".86867094" fill="#555753"/>
   <rect stroke-linejoin="round" style="color:#000000" fill-rule="evenodd" height="2.3535874" width="3.7914464" stroke="#222728" stroke-linecap="square" y="180.95261" x="384.47861" stroke-width=".86867094" fill="#555753"/>
   <rect stroke-linejoin="round" style="color:#000000" fill-rule="evenodd" height="2.1313665" width="3.7914464" stroke="#222728" stroke-linecap="square" y="178.73039" x="388.72568" stroke-width=".86867094" fill="#555753"/>
   <rect stroke-linejoin="round" style="color:#000000" fill-rule="evenodd" height="2.0757222" width="3.7914464" stroke="#222728" stroke-linecap="square" y="181.16949" x="389.17725" stroke-width=".86867094" fill="#555753"/>
   <rect stroke-linejoin="round" style="color:#000000" fill-rule="evenodd" height="2.1868329" width="3.7914464" stroke="#222728" stroke-linecap="square" y="181.11972" x="393.83676" stroke-width=".86867094" fill="#555753"/>
   <rect stroke-linejoin="round" style="color:#000000" fill-rule="evenodd" height="2.686919" width="3.7914464" stroke="#222728" stroke-linecap="square" y="178.84062" x="337.89963" stroke-width=".86867094" fill="#555753"/>
   <rect stroke-linejoin="round" style="color:#000000" fill-rule="evenodd" height="2.686919" width="3.7914464" stroke="#222728" stroke-linecap="square" y="178.84062" x="333.233" stroke-width=".86867094" fill="#555753"/>
   <g stroke-linejoin="round" style="color:#000000" fill-rule="evenodd" transform="matrix(1.7777683,0,0,1.7777683,319.62881,110.97058)" stroke="#222728" stroke-linecap="square" stroke-width=".48863" fill="#555753">
    <rect style="color:#000000" height="1.5114" width="2.1782" y="33.123001" x="8.4952002"/>
    <rect style="color:#000000" height="1.5114" width="2.1327" y="33.123001" x="10.989"/>
    <rect style="color:#000000" height="1.5114" width="2.1327" y="33.123001" x="13.475"/>
    <rect style="color:#000000" height="1.5114" width="2.1327" y="33.123001" x="15.906"/>
    <rect style="color:#000000" height="1.5114" width="2.1327" y="33.123001" x="18.513"/>
    <rect style="color:#000000" height="1.5114" width="2.1327" y="33.123001" x="20.988001"/>
    <rect style="color:#000000" height="1.5114" width="2.1327" y="33.123001" x="23.462999"/>
    <rect style="color:#000000" height="1.5114" width="2.1327" y="33.123001" x="26.07"/>
    <rect style="color:#000000" height="1.5114" width="2.1327" y="33.123001" x="28.59"/>
    <rect style="color:#000000" height="1.5114" width="2.1327" y="33.123001" x="31.063999"/>
    <rect style="color:#000000" height="1.5114" width="2.1327" y="33.123001" x="33.494999"/>
    <rect style="color:#000000" height="1.5114" width="2.1327" y="33.123001" x="36.014"/>
    <rect style="color:#000000" height="1.5114" width="2.1327" y="33.123001" x="38.488998"/>
    <rect style="color:#000000" height="1.5114" width="2.1327" y="33.123001" x="40.964001"/>
   </g>
   <path opacity=".75" style="color:#000000" d="m354.54631 186.12235-0.25422 2.9511h19.55545l-0.12622-2.73421c-0.0284-0.55466-0.35911-0.81066-0.76266-0.82133h-17.90391c-0.256 0.016-0.42311 0.22045-0.50844 0.60444z" fill-rule="evenodd" fill="#555753"/>
   <path opacity=".75" style="color:#000000" d="m354.54631 190.373-0.25422-1.29955h19.55545l-0.12622 1.3671c-0.0444 0.38934-0.46044 0.36267-0.76266 0.41067h-17.90391c-0.208 0.0284-0.38577-0.0889-0.50844-0.47822z" fill-rule="evenodd" fill="#555753"/>
   <path style="color:#000000" d="m325.12069 192.71788c0.17493 1.14488 0.006 2.43732 1.57137 2.98665h75.4236c0.8871-0.84622 1.64799-1.392 2.12265-3.06488l-79.1178 0.0782z" fill-rule="evenodd" fill="#2e3436"/>
   <path opacity=".21839001" style="color:#000000" d="m334.73664 127.05903 0.22311 24.68075c12.65682-7.50929 47.27797-11.47905 60.22012-11.82216v-13.06659l-60.44412 0.20746z" fill-rule="evenodd" fill="url(#ao)"/>
   <path opacity=".12000002" style="color:#000000" d="m325.2542 192.62899h78.9258c0 1.10044-0.86755 1.77777-1.66577 1.77777h-75.14804c-1.63288 0-2.11181-1.77777-2.11181-1.77777z" fill-rule="evenodd" fill="#eeeeec"/>
   <path opacity=".61493997" style="color:#000000" d="m373.84221 192.63965 0.005 1.90933c0 0.33955-0.27378 0.61333-0.61333 0.61333h-18.32879c-0.33955 0-0.61333-0.27378-0.61333-0.61333v-1.92355l19.55012 0.0142z" fill-rule="evenodd"/>
   <rect opacity=".27307997" style="color:#000000" fill-rule="evenodd" rx=".27914518" ry=".61411226" height="1.7777683" width="9.4443941" y="191.60677" x="364.40402" fill="#808285"/>
   <rect opacity=".27307997" style="color:#000000" fill-rule="evenodd" rx=".27914518" ry=".61411226" height="1.7777683" width="9.6666155" y="191.60677" x="354.29208" fill="#808285"/>
   <path opacity=".27000002" style="color:#000000" d="m355.18275 182.43349-0.26133 2.29865h8.25951l-0.0551-2.12977c-0.0124-0.43199-0.15822-0.6311-0.33422-0.63999h-7.38485c-0.112 0.0124-0.18489 0.17244-0.224 0.47111z" fill-rule="evenodd" fill="#888a85"/>
   <path opacity=".27000002" style="color:#000000" d="m373.1631 182.43349 0.27378 2.29865h-8.5564l0.0569-2.12977c0.0124-0.43199 0.16355-0.6311 0.34666-0.63999h7.64974c0.11555 0.0124 0.192 0.17244 0.22933 0.47111z" fill-rule="evenodd" fill="#888a85"/>
   <rect opacity=".61922996" style="color:#000000" fill-rule="evenodd" rx=".27914518" ry=".61411226" height="2.6666524" width="1.9443452" y="181.96237" x="363.07071" fill="#808285"/>
  </g>
  <g transform="translate(-1.3405866)">
   <rect stroke-linejoin="round" ry="0" height="79.109688" width="111.47578" stroke="#000" y="116.72322" x="549.30865" stroke-width=".861" fill="#2b0747"/>
   <g transform="translate(0,-1.0413513)">
    <rect height="3.0218894" width="110.60513" y="118.20449" x="549.73755" fill="#5a5454"/>
    <text style="word-spacing:0px;letter-spacing:0px" transform="scale(1.0482206 .95399767)" line-height="125%" xml:space="preserve" font-size="2.2485621px" y="126.12477" x="525.20422" font-family="Sans" fill="#000000"><tspan y="126.12477" x="525.20422" font-family="Arial" fill="#ffffff">File Edit View Search Terminal Help</tspan></text>
   </g>
   <text style="word-spacing:0px;letter-spacing:0px" font-weight="bold" xml:space="preserve" font-size="1.96818984px" y="122.98702" x="551.00659" font-family="Consolas" line-height="125%" fill="#ffffff"><tspan y="122.98702" x="551.00659">    couchdb-b: Adapter 2: hostonly</tspan><tspan y="125.44726" x="551.00659">==&gt; couchdb-b: Forwarding ports...</tspan><tspan y="127.90749" x="551.00659">    couchdb-b: 22 =&gt; 2200 (adapter 1)</tspan><tspan y="130.36774" x="551.00659">==&gt; couchdb-b: Booting VM...</tspan><tspan y="132.82797" x="551.00659">==&gt; couchdb-b: Waiting for machine to boot. This may take a few minutes...</tspan><tspan y="135.28821" x="551.00659">    couchdb-b: SSH address: 127.0.0.1:2200</tspan><tspan y="137.74844" x="551.00659">    couchdb-b: SSH username: vagrant</tspan><tspan y="140.20868" x="551.00659">    couchdb-b: SSH auth method: private key</tspan><tspan y="142.66891" x="551.00659">    couchdb-b: Warning: Connection timeout. Retrying...</tspan><tspan y="145.12917" x="551.00659">==&gt; couchdb-b: Machine booted and ready!</tspan><tspan y="147.5894" x="551.00659">==&gt; couchdb-b: Checking for guest additions in VM...</tspan><tspan y="150.04964" x="551.00659">==&gt; couchdb-b: Setting hostname...</tspan><tspan y="152.50987" x="551.00659">==&gt; couchdb-b: Configuring and enabling network interfaces...</tspan><tspan y="154.97011" x="551.00659">==&gt; couchdb-b: Mounting shared folders...</tspan><tspan y="157.43034" x="551.00659">    couchdb-b: /vagrant =&gt; ~/Dropbox/talks/Building-resilient-infrastructure-with-CouchDB/demo</tspan><tspan y="159.89058" x="551.00659">==&gt; couchdb-b: Machine not provisioning because `--no-provision` is specified.</tspan><tspan y="162.35081" x="551.00659"/><tspan y="164.81105" x="551.00659">13:37:01 CouchDB B restarted</tspan><tspan y="167.2713" x="551.00659"/><tspan y="169.73154" x="551.00659"/><tspan y="172.19177" x="551.00659">13:37:31 Stopping CouchDB A</tspan><tspan y="174.65201" x="551.00659"/><tspan y="177.11224" x="551.00659">==&gt; couchdb-a: Forcing shutdown of VM...</tspan><tspan y="179.57248" x="551.00659"/><tspan y="182.03271" x="551.00659">13:37:34 CouchDB A stopped</tspan><tspan y="184.49295" x="551.00659"/><tspan y="186.95319" x="551.00659"/><tspan y="189.41344" x="551.00659">13:38:04 Restarting CouchDB A</tspan><tspan y="191.87367" x="551.00659"/></text>
   <rect stroke-linejoin="round" height="2.1428571" width="1.5178572" stroke="#000" y="192.50955" x="551.0741" stroke-width=".045" fill="#fff"/>
  </g>
  <g transform="translate(-12.662024)">
   <rect stroke-linejoin="round" ry="0" height="79.109688" width="111.47578" stroke="#000" y="116.72322" x="429.75815" stroke-width=".861" fill="#2b0747"/>
   <g transform="translate(-.71428572 -1.6071428)">
    <text style="word-spacing:0px;letter-spacing:0px" line-height="125%" font-size="1.96818984px" y="124.19427" x="431.77048" font-family="Consolas" xml:space="preserve" fill="#ffffff"><tspan y="124.19427" x="431.77048">{&quot;ok&quot;:true,&quot;id&quot;:&quot;9e7a29b64ad02aa4aa99f1722e279fbd&quot;,&quot;rev&quot;:&quot;1-72b9d7a1e7f34b8b12cd878d0a1159b5&quot;}</tspan><tspan y="126.6545" x="431.77048">{&quot;ok&quot;:true,&quot;id&quot;:&quot;9e7a29b64ad02aa4aa99f1722e27a569&quot;,&quot;rev&quot;:&quot;1-72b9d7a1e7f34b8b12cd878d0a1159b5&quot;}</tspan><tspan y="129.11475" x="431.77048">{&quot;ok&quot;:true,&quot;id&quot;:&quot;9e7a29b64ad02aa4aa99f1722e27a629&quot;,&quot;rev&quot;:&quot;1-72b9d7a1e7f34b8b12cd878d0a1159b5&quot;}</tspan><tspan y="131.57498" x="431.77048">{&quot;ok&quot;:true,&quot;id&quot;:&quot;9e7a29b64ad02aa4aa99f1722e27b2cb&quot;,&quot;rev&quot;:&quot;1-b4e31fc36280910b05b873e9cfff9577&quot;}</tspan><tspan y="134.03522" x="431.77048">{&quot;ok&quot;:true,&quot;id&quot;:&quot;9e7a29b64ad02aa4aa99f1722e27b8be&quot;,&quot;rev&quot;:&quot;1-b4e31fc36280910b05b873e9cfff9577&quot;}</tspan><tspan y="136.49545" x="431.77048">{&quot;ok&quot;:true,&quot;id&quot;:&quot;9e7a29b64ad02aa4aa99f1722e27bdb9&quot;,&quot;rev&quot;:&quot;1-b4e31fc36280910b05b873e9cfff9577&quot;}</tspan><tspan y="138.95569" x="431.77048">{&quot;ok&quot;:true,&quot;id&quot;:&quot;9e7a29b64ad02aa4aa99f1722e27caff&quot;,&quot;rev&quot;:&quot;1-b4e31fc36280910b05b873e9cfff9577&quot;}</tspan><tspan y="141.41592" x="431.77048">{&quot;ok&quot;:true,&quot;id&quot;:&quot;9e7a29b64ad02aa4aa99f1722e27d58a&quot;,&quot;rev&quot;:&quot;1-b4e31fc36280910b05b873e9cfff9577&quot;}</tspan><tspan y="143.87616" x="431.77048">{&quot;ok&quot;:true,&quot;id&quot;:&quot;9e7a29b64ad02aa4aa99f1722e27e2ae&quot;,&quot;rev&quot;:&quot;1-b4e31fc36280910b05b873e9cfff9577&quot;}</tspan><tspan y="146.33641" x="431.77048">{&quot;ok&quot;:true,&quot;id&quot;:&quot;9e7a29b64ad02aa4aa99f1722e27e8d5&quot;,&quot;rev&quot;:&quot;1-b4e31fc36280910b05b873e9cfff9577&quot;}</tspan><tspan y="148.79665" x="431.77048">{&quot;ok&quot;:true,&quot;id&quot;:&quot;9e7a29b64ad02aa4aa99f1722e27f313&quot;,&quot;rev&quot;:&quot;1-b4e31fc36280910b05b873e9cfff9577&quot;}</tspan><tspan y="151.25688" x="431.77048">{&quot;ok&quot;:true,&quot;id&quot;:&quot;f5810d7ef826844cdcd1368c85002106&quot;,&quot;rev&quot;:&quot;1-787287c8d389c334f30f037a632ed7d0&quot;}</tspan><tspan y="153.71712" x="431.77048">curl: (28) Connection timed out after 100 milliseconds</tspan><tspan y="156.17735" x="431.77048">{&quot;ok&quot;:true,&quot;id&quot;:&quot;f5810d7ef826844cdcd1368c85002fe5&quot;,&quot;rev&quot;:&quot;1-ef504527bedff001849bfc2e56af895e&quot;}</tspan><tspan y="158.63759" x="431.77048">curl: (28) Connection timed out after 100 milliseconds</tspan><tspan y="161.09782" x="431.77048">{&quot;ok&quot;:true,&quot;id&quot;:&quot;f5810d7ef826844cdcd1368c85003907&quot;,&quot;rev&quot;:&quot;1-ef504527bedff001849bfc2e56af895e&quot;}</tspan><tspan y="163.55806" x="431.77048">curl: (28) Connection timed out after 100 milliseconds</tspan><tspan y="166.0183" x="431.77048">{&quot;ok&quot;:true,&quot;id&quot;:&quot;f5810d7ef826844cdcd1368c85003de3&quot;,&quot;rev&quot;:&quot;1-ef504527bedff001849bfc2e56af895e&quot;}</tspan><tspan y="168.47855" x="431.77048">curl: (28) Connection timed out after 100 milliseconds</tspan><tspan y="170.93878" x="431.77048">{&quot;ok&quot;:true,&quot;id&quot;:&quot;f5810d7ef826844cdcd1368c85003f41&quot;,&quot;rev&quot;:&quot;1-ef504527bedff001849bfc2e56af895e&quot;}</tspan><tspan y="173.39902" x="431.77048">curl: (28) Connection timed out after 100 milliseconds</tspan><tspan y="175.85925" x="431.77048">{&quot;ok&quot;:true,&quot;id&quot;:&quot;f5810d7ef826844cdcd1368c850041eb&quot;,&quot;rev&quot;:&quot;1-ef504527bedff001849bfc2e56af895e&quot;}</tspan><tspan y="178.31949" x="431.77048">curl: (28) Connection timed out after 100 milliseconds</tspan><tspan y="180.77972" x="431.77048">{&quot;ok&quot;:true,&quot;id&quot;:&quot;f5810d7ef826844cdcd1368c85004efe&quot;,&quot;rev&quot;:&quot;1-ef504527bedff001849bfc2e56af895e&quot;}</tspan><tspan y="183.23996" x="431.77048">curl: (28) Connection timed out after 101 milliseconds</tspan><tspan y="185.7002" x="431.77048">{&quot;ok&quot;:true,&quot;id&quot;:&quot;f5810d7ef826844cdcd1368c850056df&quot;,&quot;rev&quot;:&quot;1-ef504527bedff001849bfc2e56af895e&quot;}</tspan><tspan y="188.16043" x="431.77048">curl: (28) Connection timed out after 100 milliseconds</tspan><tspan y="190.62068" x="431.77048">{&quot;ok&quot;:true,&quot;id&quot;:&quot;f5810d7ef826844cdcd1368c85005a80&quot;,&quot;rev&quot;:&quot;1-576be1ec7539561a34e326acbb4cfeb9&quot;}</tspan><tspan y="193.08092" x="431.77048">curl: (28) Connection timed out after 100 milliseconds</tspan></text>
    <rect stroke-linejoin="round" height="2.1428571" width="1.5178572" stroke="#000" y="193.7168" x="431.83801" stroke-width=".045" fill="#fff"/>
   </g>
   <g transform="translate(-119.52512,-1.0413513)">
    <rect height="3.0218894" width="110.60513" y="118.20449" x="549.73755" fill="#5a5454"/>
    <text style="word-spacing:0px;letter-spacing:0px" transform="scale(1.0482206 .95399767)" line-height="125%" xml:space="preserve" font-size="2.2485621px" y="126.12477" x="525.20422" font-family="Sans" fill="#000000"><tspan y="126.12477" x="525.20422" font-family="Arial" fill="#ffffff">File Edit View Search Terminal Help</tspan></text>
   </g>
  </g>
  <g transform="matrix(.21143955 0 0 .21143955 263.15325 186.91662)">
   <rect stroke-linejoin="round" ry="0" height="79.109688" width="111.47578" stroke="#000" y="116.72322" x="549.30865" stroke-width=".861" fill="#2b0747"/>
   <g transform="translate(0,-1.0413513)">
    <rect height="3.0218894" width="110.60513" y="118.20449" x="549.73755" fill="#5a5454"/>
    <text style="word-spacing:0px;letter-spacing:0px" transform="scale(1.0482206 .95399767)" line-height="125%" xml:space="preserve" font-size="2.2485621px" y="126.12477" x="525.20422" font-family="Sans" fill="#000000"><tspan y="126.12477" x="525.20422" font-family="Arial" fill="#ffffff">File Edit View Search Terminal Help</tspan></text>
   </g>
   <text style="word-spacing:0px;letter-spacing:0px" font-weight="bold" xml:space="preserve" font-size="1.96818984px" y="122.98702" x="551.00659" font-family="Consolas" line-height="125%" fill="#ffffff"><tspan y="122.98702" x="551.00659">    couchdb-b: Adapter 2: hostonly</tspan><tspan y="125.44726" x="551.00659">==&gt; couchdb-b: Forwarding ports...</tspan><tspan y="127.90749" x="551.00659">    couchdb-b: 22 =&gt; 2200 (adapter 1)</tspan><tspan y="130.36774" x="551.00659">==&gt; couchdb-b: Booting VM...</tspan><tspan y="132.82797" x="551.00659">==&gt; couchdb-b: Waiting for machine to boot. This may take a few minutes...</tspan><tspan y="135.28821" x="551.00659">    couchdb-b: SSH address: 127.0.0.1:2200</tspan><tspan y="137.74844" x="551.00659">    couchdb-b: SSH username: vagrant</tspan><tspan y="140.20868" x="551.00659">    couchdb-b: SSH auth method: private key</tspan><tspan y="142.66891" x="551.00659">    couchdb-b: Warning: Connection timeout. Retrying...</tspan><tspan y="145.12917" x="551.00659">==&gt; couchdb-b: Machine booted and ready!</tspan><tspan y="147.5894" x="551.00659">==&gt; couchdb-b: Checking for guest additions in VM...</tspan><tspan y="150.04964" x="551.00659">==&gt; couchdb-b: Setting hostname...</tspan><tspan y="152.50987" x="551.00659">==&gt; couchdb-b: Configuring and enabling network interfaces...</tspan><tspan y="154.97011" x="551.00659">==&gt; couchdb-b: Mounting shared folders...</tspan><tspan y="157.43034" x="551.00659">    couchdb-b: /vagrant =&gt; ~/Dropbox/talks/Building-resilient-infrastructure-with-CouchDB/demo</tspan><tspan y="159.89058" x="551.00659">==&gt; couchdb-b: Machine not provisioning because `--no-provision` is specified.</tspan><tspan y="162.35081" x="551.00659"/><tspan y="164.81105" x="551.00659">13:37:01 CouchDB B restarted</tspan><tspan y="167.2713" x="551.00659"/><tspan y="169.73154" x="551.00659"/><tspan y="172.19177" x="551.00659">13:37:31 Stopping CouchDB A</tspan><tspan y="174.65201" x="551.00659"/><tspan y="177.11224" x="551.00659">==&gt; couchdb-a: Forcing shutdown of VM...</tspan><tspan y="179.57248" x="551.00659"/><tspan y="182.03271" x="551.00659">13:37:34 CouchDB A stopped</tspan><tspan y="184.49295" x="551.00659"/><tspan y="186.95319" x="551.00659"/><tspan y="189.41344" x="551.00659">13:38:04 Restarting CouchDB A</tspan><tspan y="191.87367" x="551.00659"/></text>
   <rect stroke-linejoin="round" height="2.1428571" width="1.5178572" stroke="#000" y="192.50955" x="551.0741" stroke-width=".045" fill="#fff"/>
  </g>
  <g transform="matrix(.21143955 0 0 .21143955 263.15325 186.91662)">
   <rect stroke-linejoin="round" ry="0" height="79.109688" width="111.47578" stroke="#000" y="116.72322" x="429.75815" stroke-width=".861" fill="#2b0747"/>
   <g transform="translate(-.71428572 -1.6071428)">
    <text style="word-spacing:0px;letter-spacing:0px" line-height="125%" font-size="1.96818984px" y="124.19427" x="431.77048" font-family="Consolas" xml:space="preserve" fill="#ffffff"><tspan y="124.19427" x="431.77048">{&quot;ok&quot;:true,&quot;id&quot;:&quot;9e7a29b64ad02aa4aa99f1722e279fbd&quot;,&quot;rev&quot;:&quot;1-72b9d7a1e7f34b8b12cd878d0a1159b5&quot;}</tspan><tspan y="126.6545" x="431.77048">{&quot;ok&quot;:true,&quot;id&quot;:&quot;9e7a29b64ad02aa4aa99f1722e27a569&quot;,&quot;rev&quot;:&quot;1-72b9d7a1e7f34b8b12cd878d0a1159b5&quot;}</tspan><tspan y="129.11475" x="431.77048">{&quot;ok&quot;:true,&quot;id&quot;:&quot;9e7a29b64ad02aa4aa99f1722e27a629&quot;,&quot;rev&quot;:&quot;1-72b9d7a1e7f34b8b12cd878d0a1159b5&quot;}</tspan><tspan y="131.57498" x="431.77048">{&quot;ok&quot;:true,&quot;id&quot;:&quot;9e7a29b64ad02aa4aa99f1722e27b2cb&quot;,&quot;rev&quot;:&quot;1-b4e31fc36280910b05b873e9cfff9577&quot;}</tspan><tspan y="134.03522" x="431.77048">{&quot;ok&quot;:true,&quot;id&quot;:&quot;9e7a29b64ad02aa4aa99f1722e27b8be&quot;,&quot;rev&quot;:&quot;1-b4e31fc36280910b05b873e9cfff9577&quot;}</tspan><tspan y="136.49545" x="431.77048">{&quot;ok&quot;:true,&quot;id&quot;:&quot;9e7a29b64ad02aa4aa99f1722e27bdb9&quot;,&quot;rev&quot;:&quot;1-b4e31fc36280910b05b873e9cfff9577&quot;}</tspan><tspan y="138.95569" x="431.77048">{&quot;ok&quot;:true,&quot;id&quot;:&quot;9e7a29b64ad02aa4aa99f1722e27caff&quot;,&quot;rev&quot;:&quot;1-b4e31fc36280910b05b873e9cfff9577&quot;}</tspan><tspan y="141.41592" x="431.77048">{&quot;ok&quot;:true,&quot;id&quot;:&quot;9e7a29b64ad02aa4aa99f1722e27d58a&quot;,&quot;rev&quot;:&quot;1-b4e31fc36280910b05b873e9cfff9577&quot;}</tspan><tspan y="143.87616" x="431.77048">{&quot;ok&quot;:true,&quot;id&quot;:&quot;9e7a29b64ad02aa4aa99f1722e27e2ae&quot;,&quot;rev&quot;:&quot;1-b4e31fc36280910b05b873e9cfff9577&quot;}</tspan><tspan y="146.33641" x="431.77048">{&quot;ok&quot;:true,&quot;id&quot;:&quot;9e7a29b64ad02aa4aa99f1722e27e8d5&quot;,&quot;rev&quot;:&quot;1-b4e31fc36280910b05b873e9cfff9577&quot;}</tspan><tspan y="148.79665" x="431.77048">{&quot;ok&quot;:true,&quot;id&quot;:&quot;9e7a29b64ad02aa4aa99f1722e27f313&quot;,&quot;rev&quot;:&quot;1-b4e31fc36280910b05b873e9cfff9577&quot;}</tspan><tspan y="151.25688" x="431.77048">{&quot;ok&quot;:true,&quot;id&quot;:&quot;f5810d7ef826844cdcd1368c85002106&quot;,&quot;rev&quot;:&quot;1-787287c8d389c334f30f037a632ed7d0&quot;}</tspan><tspan y="153.71712" x="431.77048">curl: (28) Connection timed out after 100 milliseconds</tspan><tspan y="156.17735" x="431.77048">{&quot;ok&quot;:true,&quot;id&quot;:&quot;f5810d7ef826844cdcd1368c85002fe5&quot;,&quot;rev&quot;:&quot;1-ef504527bedff001849bfc2e56af895e&quot;}</tspan><tspan y="158.63759" x="431.77048">curl: (28) Connection timed out after 100 milliseconds</tspan><tspan y="161.09782" x="431.77048">{&quot;ok&quot;:true,&quot;id&quot;:&quot;f5810d7ef826844cdcd1368c85003907&quot;,&quot;rev&quot;:&quot;1-ef504527bedff001849bfc2e56af895e&quot;}</tspan><tspan y="163.55806" x="431.77048">curl: (28) Connection timed out after 100 milliseconds</tspan><tspan y="166.0183" x="431.77048">{&quot;ok&quot;:true,&quot;id&quot;:&quot;f5810d7ef826844cdcd1368c85003de3&quot;,&quot;rev&quot;:&quot;1-ef504527bedff001849bfc2e56af895e&quot;}</tspan><tspan y="168.47855" x="431.77048">curl: (28) Connection timed out after 100 milliseconds</tspan><tspan y="170.93878" x="431.77048">{&quot;ok&quot;:true,&quot;id&quot;:&quot;f5810d7ef826844cdcd1368c85003f41&quot;,&quot;rev&quot;:&quot;1-ef504527bedff001849bfc2e56af895e&quot;}</tspan><tspan y="173.39902" x="431.77048">curl: (28) Connection timed out after 100 milliseconds</tspan><tspan y="175.85925" x="431.77048">{&quot;ok&quot;:true,&quot;id&quot;:&quot;f5810d7ef826844cdcd1368c850041eb&quot;,&quot;rev&quot;:&quot;1-ef504527bedff001849bfc2e56af895e&quot;}</tspan><tspan y="178.31949" x="431.77048">curl: (28) Connection timed out after 100 milliseconds</tspan><tspan y="180.77972" x="431.77048">{&quot;ok&quot;:true,&quot;id&quot;:&quot;f5810d7ef826844cdcd1368c85004efe&quot;,&quot;rev&quot;:&quot;1-ef504527bedff001849bfc2e56af895e&quot;}</tspan><tspan y="183.23996" x="431.77048">curl: (28) Connection timed out after 101 milliseconds</tspan><tspan y="185.7002" x="431.77048">{&quot;ok&quot;:true,&quot;id&quot;:&quot;f5810d7ef826844cdcd1368c850056df&quot;,&quot;rev&quot;:&quot;1-ef504527bedff001849bfc2e56af895e&quot;}</tspan><tspan y="188.16043" x="431.77048">curl: (28) Connection timed out after 100 milliseconds</tspan><tspan y="190.62068" x="431.77048">{&quot;ok&quot;:true,&quot;id&quot;:&quot;f5810d7ef826844cdcd1368c85005a80&quot;,&quot;rev&quot;:&quot;1-576be1ec7539561a34e326acbb4cfeb9&quot;}</tspan><tspan y="193.08092" x="431.77048">curl: (28) Connection timed out after 100 milliseconds</tspan></text>
    <rect stroke-linejoin="round" height="2.1428571" width="1.5178572" stroke="#000" y="193.7168" x="431.83801" stroke-width=".045" fill="#fff"/>
   </g>
   <g transform="translate(-119.52512,-1.0413513)">
    <rect height="3.0218894" width="110.60513" y="118.20449" x="549.73755" fill="#5a5454"/>
    <text style="word-spacing:0px;letter-spacing:0px" transform="scale(1.0482206 .95399767)" line-height="125%" xml:space="preserve" font-size="2.2485621px" y="126.12477" x="525.20422" font-family="Sans" fill="#000000"><tspan y="126.12477" x="525.20422" font-family="Arial" fill="#ffffff">File Edit View Search Terminal Help</tspan></text>
   </g>
  </g>
  <g transform="matrix(.30372367 0 0 .30372367 177.94402 174.57726)">
   <g transform="matrix(.0142075 0 0 .02086758 590.75682 110.45328)">
    <rect opacity=".40206185" style="color:#000000" height="478.35718" width="1339.6335" y="-150.69685" x="-1559.2523" fill="url(#s)"/>
    <path opacity=".40206185" style="color:#000000" d="m-219.61876-150.68038v478.33079c142.874166 0.90045 345.40022-107.16966 345.40014-239.196175 0-132.026537-159.436816-239.134595-345.40014-239.134615z" fill="url(#f)"/>
    <path opacity=".40206185" style="color:#000000" d="m-1559.2523-150.68038v478.33079c-142.8742 0.90045-345.4002-107.16966-345.4002-239.196175 0-132.026537 159.4368-239.134595 345.4002-239.134615z" fill="url(#e)"/>
   </g>
   <g transform="translate(554.21431,72.29075)">
    <path stroke-linejoin="round" fill="url(#an)" fill-rule="evenodd" transform="matrix(1.001723 0 0 1.000481 .01180323 -.0549963)" stroke="#5e5e5e" stroke-linecap="round" stroke-width=".99889958px" d="m12.466718 7.9979592v33.5370658h21.962152v-33.7390963l-4.04061-4.2426407h-14.082962l-3.83858 4.4446712z"/>
    <path fill-rule="evenodd" fill-opacity=".65536726" transform="matrix(1.035211 0 0 1.029412 -.457741 -.117647)" fill="#fff" d="m16.428571 4-3.428571 4.8571429h20.285714l-3.714285-4.7142858-13.142858-0.1428571z"/>
    <rect height="4.242641" stroke="#fff" stroke-width="1.01696146" fill="#fff" style="color:#000000" fill-rule="evenodd" transform="matrix(1.025575 0 0 .942809 -.872163 .354403)" width="15.601009" opacity=".34857142" y="11.291361" x="16.451418"/>
    <path fill="none" transform="matrix(1.008958 0 0 1.005055 -.08577756 -.107362)" stroke="#fff" stroke-width=".99304473" d="m13.465157 8.6221002v31.7810238h19.822439v-31.9645649l-3.670822-3.8543633h-12.664336l-3.487281 4.0379044z"/>
    <rect height="5.0418525" stroke="url(#a)" stroke-width="1.11743951" fill="url(#a)" style="color:#000000" fill-rule="evenodd" transform="matrix(1.009445 0 0 .793359 -.745308 5.309442)" width="10.897081" opacity=".52571429" y="23.558765" x="21.541845"/>
    <rect height="4.242641" stroke="#acacac" stroke-width="1.00375366" fill="#c8c8c8" style="color:#000000" fill-rule="evenodd" transform="matrix(1.052742 0 0 .942809 -1.366425 1.388024)" width="10.4489" y="23.453293" x="20.770918"/>
    <rect height="4.242641" stroke="#fff" stroke-width="1.01696134" fill="#fff" style="color:#000000" fill-rule="evenodd" transform="matrix(1.025575 0 0 .942809 -.872158 .697549)" width="15.601009" opacity=".34857142" y="17.291361" x="16.451418"/>
    <rect height="4.242641" stroke="#acacac" stroke-width="1.02313101" fill="#c8c8c8" style="color:#000000" fill-rule="evenodd" transform="matrix(1.013244 0 0 .942809 -.15194 1.054691)" width="15.790874" y="16.382225" x="15.447355"/>
    <rect height="4.242641" stroke="#acacac" stroke-width="1.02313089" fill="#c8c8c8" style="color:#000000" fill-rule="evenodd" transform="matrix(1.013244 0 0 .942809 -.151932 .711545)" width="15.790874" y="10.382225" x="15.447355"/>
    <g fill-rule="evenodd" transform="matrix(.885784 0 0 .892968 2.129727 2.884785)">
     <circle cy="26.231213" stroke="#979797" stroke-width="1.44772947" fill="#c8c8c8" style="color:#000000" transform="matrix(.779806 0 0 .773527 -34.68981 5.595099)" r="2.171828" d="m 68.185294,26.231213 a 2.171828,2.171828 0 0 1 -2.171828,2.171828 2.171828,2.171828 0 0 1 -2.171828,-2.171828 2.171828,2.171828 0 0 1 2.171828,-2.171828 2.171828,2.171828 0 0 1 2.171828,2.171828 z" cx="66.013466"/>
     <circle style="color:#000000" fill="#fff" transform="matrix(1.008603 0 0 1.000481 -.07396387 -.0549963)" cy="25.574614" cx="16.162441" r=".50507629" d="m 16.667518,25.574614 a 0.50507629,0.50507629 0 0 1 -0.505077,0.505076 0.50507629,0.50507629 0 0 1 -0.505076,-0.505076 0.50507629,0.50507629 0 0 1 0.505076,-0.505077 0.50507629,0.50507629 0 0 1 0.505077,0.505077 z"/>
    </g>
    <rect style="color:#000000" fill-rule="evenodd" transform="matrix(.989949 0 0 .98995 .120113 .482425)" height="10.101525" width="1.0101526" y="29.817253" x="19.071575" fill="url(#r)"/>
    <rect style="color:#000000" fill-rule="evenodd" transform="matrix(.989949 0 0 .98995 .140205 .482425)" height="10.101525" width="1.0101526" y="29.817253" x="21.071575" fill="url(#q)"/>
    <rect style="color:#000000" fill-rule="evenodd" transform="matrix(.989949 0 0 .98995 .160306 .482425)" height="10.101525" width="1.0101526" y="29.817253" x="23.071575" fill="url(#p)"/>
    <rect style="color:#000000" fill-rule="evenodd" transform="matrix(.989949 0 0 .98995 .180407 .482425)" height="10.101525" width="1.0101526" y="29.817253" x="25.071575" fill="url(#o)"/>
    <rect style="color:#000000" fill-rule="evenodd" transform="matrix(.989949 0 0 .98995 .200521 .482425)" height="10.101525" width="1.0101526" y="29.817253" x="27.071575" fill="url(#n)"/>
    <rect opacity=".54285709" style="color:#000000" fill-rule="evenodd" transform="matrix(.989949 0 0 .98995 .220623 .482425)" height="10.101525" width="1.0101526" y="29.817253" x="29.071575" fill="url(#m)"/>
    <rect opacity=".16000001" style="color:#000000" fill-rule="evenodd" transform="matrix(.989949 0 0 .98995 .200001 .482425)" height="10.101525" width="1.0101526" y="29.817253" x="17.980711" fill="url(#l)"/>
    <rect opacity=".29142851" style="color:#000000" fill-rule="evenodd" transform="matrix(.989949 0 0 .98995 .220115 .482425)" height="10.101525" width="1.0101526" y="29.817253" x="19.980711" fill="url(#k)"/>
    <rect opacity=".29142851" style="color:#000000" fill-rule="evenodd" transform="matrix(.989949 0 0 .98995 .240217 .482425)" height="10.101525" width="1.0101526" y="29.817253" x="21.980711" fill="url(#j)"/>
    <rect opacity=".29142851" style="color:#000000" fill-rule="evenodd" transform="matrix(.989949 0 0 .98995 .260319 .482425)" height="10.101525" width="1.0101526" y="29.817253" x="23.980711" fill="url(#i)"/>
    <rect opacity=".29142851" style="color:#000000" fill-rule="evenodd" transform="matrix(.989949 0 0 .98995 .280409 .482425)" height="10.101525" width="1.0101526" y="29.817253" x="25.980711" fill="url(#h)"/>
    <rect opacity=".22857145" style="color:#000000" fill-rule="evenodd" transform="matrix(.989949 0 0 .98995 .30051 .482425)" height="10.101525" width="1.0101526" y="29.817253" x="27.980711" fill="url(#g)"/>
   </g>
  </g>
  <g filter="url(#au)" transform="matrix(.0280687 0 0 .0280687 339.16484 194.4975)">
   <polygon points="201.51 10.92 20.542 10.92 20.542 48.685 6.383 48.685 6.383 126.065 215.396 126.065 215.396 48.685 201.51 48.685" fill="#f00" transform="translate(506.6115,71.192824)"/>
   <path fill="#eb1019" d="m509.2165 198.90182v-82.803h14.16v-37.763996h188.522v37.763996h13.885v82.803h-216.567zm5.905-2.973 203.994 0.179-0.884-72.453h-13.89v-37.765996h-173.413v37.765996h-14.16l-1.381 69.877-0.266 2.397z"/>
   <polygon points="55.382 26.136 55.305 0.438 29.972 6.829 29.972 23.848 36.422 32.574" fill="#fff" transform="translate(506.6115,71.192824)"/>
   <polygon transform="translate(506.6115,71.192824)" stroke="#bd101d" points="188.003 126.69 33.813 126.69 33.899 93.641 76.686 103.309 187.977 92.94" fill="#bd101d"/>
   <polygon transform="translate(506.6115,71.192824)" stroke="#bd101d" points="149.609 64.863 125.424 48.352 96.529 57.145 33.871 52.401 33.871 74.63 73.602 86.029 187.13 75.945 187.13 52.758 161.239 69.688" fill="#bd101d"/>
   <polygon points="33.871 53.467 52.137 80.971 58.873 82.808 68.02 120.713 72.766 122.681 76.123 136.549 102.592 136.549 89.863 83.941 125.821 60.593 145.377 77.117 150.128 75.256 151.931 80.169 187.13 77.01 184.075 69.212 164.271 64.369 128.412 35.152 89.34 49.973 77.334 34.173 95.421 15.785 112.66 15.785 119.461 21.515 119.461 15.785 133.01 15.785 129.737 8.181 90.051 1.897 53.414 25.361 16.749 37.652 9.587 45.228 9.587 65.542 19.699 69.846 19.699 58.113 24.002 61.485 24.002 53.469" fill="#fff" transform="translate(506.6115,71.192824)"/>
  </g>
  <g transform="translate(12.269412)">
   <g transform="matrix(.30372367 0 0 .30372367 177.94402 174.57726)">
    <g transform="matrix(.0142075 0 0 .02086758 590.75682 110.45328)">
     <rect opacity=".40206185" style="color:#000000" height="478.35718" width="1339.6335" y="-150.69685" x="-1559.2523" fill="url(#s)"/>
     <path opacity=".40206185" style="color:#000000" d="m-219.61876-150.68038v478.33079c142.874166 0.90045 345.40022-107.16966 345.40014-239.196175 0-132.026537-159.436816-239.134595-345.40014-239.134615z" fill="url(#f)"/>
     <path opacity=".40206185" style="color:#000000" d="m-1559.2523-150.68038v478.33079c-142.8742 0.90045-345.4002-107.16966-345.4002-239.196175 0-132.026537 159.4368-239.134595 345.4002-239.134615z" fill="url(#e)"/>
    </g>
    <g transform="translate(554.21431,72.29075)">
     <path stroke-linejoin="round" fill="url(#am)" fill-rule="evenodd" transform="matrix(1.001723 0 0 1.000481 .01180323 -.0549963)" stroke="#5e5e5e" stroke-linecap="round" stroke-width=".99889958px" d="m12.466718 7.9979592v33.5370658h21.962152v-33.7390963l-4.04061-4.2426407h-14.082962l-3.83858 4.4446712z"/>
     <path fill-rule="evenodd" fill-opacity=".65536726" transform="matrix(1.035211 0 0 1.029412 -.457741 -.117647)" fill="#fff" d="m16.428571 4-3.428571 4.8571429h20.285714l-3.714285-4.7142858-13.142858-0.1428571z"/>
     <rect height="4.242641" stroke="#fff" stroke-width="1.01696146" fill="#fff" style="color:#000000" fill-rule="evenodd" transform="matrix(1.025575 0 0 .942809 -.872163 .354403)" width="15.601009" opacity=".34857142" y="11.291361" x="16.451418"/>
     <path fill="none" transform="matrix(1.008958 0 0 1.005055 -.08577756 -.107362)" stroke="#fff" stroke-width=".99304473" d="m13.465157 8.6221002v31.7810238h19.822439v-31.9645649l-3.670822-3.8543633h-12.664336l-3.487281 4.0379044z"/>
     <rect height="5.0418525" stroke="url(#a)" stroke-width="1.11743951" fill="url(#a)" style="color:#000000" fill-rule="evenodd" transform="matrix(1.009445 0 0 .793359 -.745308 5.309442)" width="10.897081" opacity=".52571429" y="23.558765" x="21.541845"/>
     <rect height="4.242641" stroke="#acacac" stroke-width="1.00375366" fill="#c8c8c8" style="color:#000000" fill-rule="evenodd" transform="matrix(1.052742 0 0 .942809 -1.366425 1.388024)" width="10.4489" y="23.453293" x="20.770918"/>
     <rect height="4.242641" stroke="#fff" stroke-width="1.01696134" fill="#fff" style="color:#000000" fill-rule="evenodd" transform="matrix(1.025575 0 0 .942809 -.872158 .697549)" width="15.601009" opacity=".34857142" y="17.291361" x="16.451418"/>
     <rect height="4.242641" stroke="#acacac" stroke-width="1.02313101" fill="#c8c8c8" style="color:#000000" fill-rule="evenodd" transform="matrix(1.013244 0 0 .942809 -.15194 1.054691)" width="15.790874" y="16.382225" x="15.447355"/>
     <rect height="4.242641" stroke="#acacac" stroke-width="1.02313089" fill="#c8c8c8" style="color:#000000" fill-rule="evenodd" transform="matrix(1.013244 0 0 .942809 -.151932 .711545)" width="15.790874" y="10.382225" x="15.447355"/>
     <g fill-rule="evenodd" transform="matrix(.885784 0 0 .892968 2.129727 2.884785)">
      <circle cy="26.231213" stroke="#979797" stroke-width="1.44772947" fill="#c8c8c8" style="color:#000000" transform="matrix(.779806 0 0 .773527 -34.68981 5.595099)" r="2.171828" d="m 68.185294,26.231213 a 2.171828,2.171828 0 0 1 -2.171828,2.171828 2.171828,2.171828 0 0 1 -2.171828,-2.171828 2.171828,2.171828 0 0 1 2.171828,-2.171828 2.171828,2.171828 0 0 1 2.171828,2.171828 z" cx="66.013466"/>
      <circle style="color:#000000" fill="#fff" transform="matrix(1.008603 0 0 1.000481 -.07396387 -.0549963)" cy="25.574614" cx="16.162441" r=".50507629" d="m 16.667518,25.574614 a 0.50507629,0.50507629 0 0 1 -0.505077,0.505076 0.50507629,0.50507629 0 0 1 -0.505076,-0.505076 0.50507629,0.50507629 0 0 1 0.505076,-0.505077 0.50507629,0.50507629 0 0 1 0.505077,0.505077 z"/>
     </g>
     <rect style="color:#000000" fill-rule="evenodd" transform="matrix(.989949 0 0 .98995 .120113 .482425)" height="10.101525" width="1.0101526" y="29.817253" x="19.071575" fill="url(#r)"/>
     <rect style="color:#000000" fill-rule="evenodd" transform="matrix(.989949 0 0 .98995 .140205 .482425)" height="10.101525" width="1.0101526" y="29.817253" x="21.071575" fill="url(#q)"/>
     <rect style="color:#000000" fill-rule="evenodd" transform="matrix(.989949 0 0 .98995 .160306 .482425)" height="10.101525" width="1.0101526" y="29.817253" x="23.071575" fill="url(#p)"/>
     <rect style="color:#000000" fill-rule="evenodd" transform="matrix(.989949 0 0 .98995 .180407 .482425)" height="10.101525" width="1.0101526" y="29.817253" x="25.071575" fill="url(#o)"/>
     <rect style="color:#000000" fill-rule="evenodd" transform="matrix(.989949 0 0 .98995 .200521 .482425)" height="10.101525" width="1.0101526" y="29.817253" x="27.071575" fill="url(#n)"/>
     <rect opacity=".54285709" style="color:#000000" fill-rule="evenodd" transform="matrix(.989949 0 0 .98995 .220623 .482425)" height="10.101525" width="1.0101526" y="29.817253" x="29.071575" fill="url(#m)"/>
     <rect opacity=".16000001" style="color:#000000" fill-rule="evenodd" transform="matrix(.989949 0 0 .98995 .200001 .482425)" height="10.101525" width="1.0101526" y="29.817253" x="17.980711" fill="url(#l)"/>
     <rect opacity=".29142851" style="color:#000000" fill-rule="evenodd" transform="matrix(.989949 0 0 .98995 .220115 .482425)" height="10.101525" width="1.0101526" y="29.817253" x="19.980711" fill="url(#k)"/>
     <rect opacity=".29142851" style="color:#000000" fill-rule="evenodd" transform="matrix(.989949 0 0 .98995 .240217 .482425)" height="10.101525" width="1.0101526" y="29.817253" x="21.980711" fill="url(#j)"/>
     <rect opacity=".29142851" style="color:#000000" fill-rule="evenodd" transform="matrix(.989949 0 0 .98995 .260319 .482425)" height="10.101525" width="1.0101526" y="29.817253" x="23.980711" fill="url(#i)"/>
     <rect opacity=".29142851" style="color:#000000" fill-rule="evenodd" transform="matrix(.989949 0 0 .98995 .280409 .482425)" height="10.101525" width="1.0101526" y="29.817253" x="25.980711" fill="url(#h)"/>
     <rect opacity=".22857145" style="color:#000000" fill-rule="evenodd" transform="matrix(.989949 0 0 .98995 .30051 .482425)" height="10.101525" width="1.0101526" y="29.817253" x="27.980711" fill="url(#g)"/>
    </g>
   </g>
   <g filter="url(#at)" transform="matrix(.0280687 0 0 .0280687 339.16484 194.4975)">
    <polygon points="6.383 126.065 215.396 126.065 215.396 48.685 201.51 48.685 201.51 10.92 20.542 10.92 20.542 48.685 6.383 48.685" fill="#f00" transform="translate(506.6115,71.192824)"/>
    <path fill="#eb1019" d="m509.2165 198.90182v-82.803h14.16v-37.763996h188.522v37.763996h13.885v82.803h-216.567zm5.905-2.973 203.994 0.179-0.884-72.453h-13.89v-37.765996h-173.413v37.765996h-14.16l-1.381 69.877-0.266 2.397z"/>
    <polygon points="55.305 0.438 29.972 6.829 29.972 23.848 36.422 32.574 55.382 26.136" fill="#fff" transform="translate(506.6115,71.192824)"/>
    <polygon transform="translate(506.6115,71.192824)" stroke="#bd101d" points="33.813 126.69 33.899 93.641 76.686 103.309 187.977 92.94 188.003 126.69" fill="#bd101d"/>
    <polygon transform="translate(506.6115,71.192824)" stroke="#bd101d" points="149.609 64.863 125.424 48.352 96.529 57.145 33.871 52.401 33.871 74.63 73.602 86.029 187.13 75.945 187.13 52.758 161.239 69.688" fill="#bd101d"/>
    <polygon points="68.02 120.713 72.766 122.681 76.123 136.549 102.592 136.549 89.863 83.941 125.821 60.593 145.377 77.117 150.128 75.256 151.931 80.169 187.13 77.01 184.075 69.212 164.271 64.369 128.412 35.152 89.34 49.973 77.334 34.173 95.421 15.785 112.66 15.785 119.461 21.515 119.461 15.785 133.01 15.785 129.737 8.181 90.051 1.897 53.414 25.361 16.749 37.652 9.587 45.228 9.587 65.542 19.699 69.846 19.699 58.113 24.002 61.485 24.002 53.469 33.871 53.467 52.137 80.971 58.873 82.808" fill="#fff" transform="translate(506.6115,71.192824)"/>
   </g>
  </g>
  <g font-size="15.095541px" transform="translate(0 -.25253814)" font-family="Consolas">
   <text style="word-spacing:0px;letter-spacing:0px" xml:space="preserve" line-height="125%" y="-17.496637" x="377.29065" fill="#000000"><tspan x="377.29065" y="-17.496637">Laptop</tspan></text>
   <text style="word-spacing:0px;letter-spacing:0px" xml:space="preserve" line-height="125%" y="-17.496637" x="432.81812" fill="#8d8d8d"><tspan x="432.81812" y="-17.496637">(VM Host)</tspan></text>
  </g>
  <text style="word-spacing:0px;letter-spacing:0px" font-size="15.095541px" line-height="125%" y="26.520061" x="414.18619" font-family="Consolas" xml:space="preserve" fill="#8d8d8d"><tspan y="26.520061" x="414.18619">VM</tspan></text>
  <text style="word-spacing:0px;letter-spacing:0px" font-size="15.095541px" line-height="125%" y="26.520061" x="644.68573" font-family="Consolas" xml:space="preserve" fill="#8d8d8d"><tspan y="26.520061" x="644.68573">VM</tspan></text>
  <text style="word-spacing:0px;letter-spacing:0px" xml:space="preserve" font-size="10px" y="208.29242" x="428.21487" font-family="Sans" line-height="125%" fill="#000000"><tspan font-size="10px" y="208.29242" x="428.21487" font-family="Consolas">./create_docs.sh</tspan></text>
  <text style="word-spacing:0px;letter-spacing:0px" xml:space="preserve" font-size="10px" y="208.29242" x="556.33289" font-family="Sans" line-height="125%" fill="#000000"><tspan font-size="10px" y="208.29242" x="556.33289" font-family="Consolas">./break_things.sh</tspan></text>
  <g filter="url(#av)" transform="matrix(.14912227 0 0 .14912227 501.95865 28.244206)">
   <polygon points="201.51 10.92 20.542 10.92 20.542 48.685 6.383 48.685 6.383 126.065 215.396 126.065 215.396 48.685 201.51 48.685" fill="#f00" transform="translate(506.6115,71.192824)"/>
   <path fill="#eb1019" d="m509.2165 198.90182v-82.803h14.16v-37.763996h188.522v37.763996h13.885v82.803h-216.567zm5.905-2.973 203.994 0.179-0.884-72.453h-13.89v-37.765996h-173.413v37.765996h-14.16l-1.381 69.877-0.266 2.397z"/>
   <polygon points="29.972 6.829 29.972 23.848 36.422 32.574 55.382 26.136 55.305 0.438" fill="#fff" transform="translate(506.6115,71.192824)"/>
   <polygon transform="translate(506.6115,71.192824)" stroke="#bd101d" points="33.899 93.641 76.686 103.309 187.977 92.94 188.003 126.69 33.813 126.69" fill="#bd101d"/>
   <polygon transform="translate(506.6115,71.192824)" stroke="#bd101d" points="73.602 86.029 187.13 75.945 187.13 52.758 161.239 69.688 149.609 64.863 125.424 48.352 96.529 57.145 33.871 52.401 33.871 74.63" fill="#bd101d"/>
   <polygon points="24.002 53.469 33.871 53.467 52.137 80.971 58.873 82.808 68.02 120.713 72.766 122.681 76.123 136.549 102.592 136.549 89.863 83.941 125.821 60.593 145.377 77.117 150.128 75.256 151.931 80.169 187.13 77.01 184.075 69.212 164.271 64.369 128.412 35.152 89.34 49.973 77.334 34.173 95.421 15.785 112.66 15.785 119.461 21.515 119.461 15.785 133.01 15.785 129.737 8.181 90.051 1.897 53.414 25.361 16.749 37.652 9.587 45.228 9.587 65.542 19.699 69.846 19.699 58.113 24.002 61.485" fill="#fff" transform="translate(506.6115,71.192824)"/>
  </g>
 </g>
 <g stroke="#de0000" fill="none">
  <path marker-end="url(#be)" d="m243.14748 67.702983-69.14524-0.000001" stroke-width=".98613858"/>
  <path marker-end="url(#ak)" d="m173.26637 91.554316 69.36763-0.000001" stroke-width=".98763043"/>
 </g>
 <g>
  <path marker-end="url(#b)" d="m476.25148 116.28616 2.92226-32.3701" transform="translate(-330.06516,33.546728)" stroke="#000" stroke-width=".98135579px" fill="none"/>
  <g transform="matrix(1.3473205,0,0,1.3473205,-409.57562,-66.571887)">
   <rect stroke-linejoin="round" ry="3.7180429" height="7.4360857" width="42.791424" stroke="#000" y="146.30583" x="385.3801" stroke-width=".50378901" fill="#c3c3c3"/>
   <text style="word-spacing:0px;letter-spacing:0px" font-size="5.25742817px" line-height="125%" y="151.55394" x="387.89218" font-family="Consolas" xml:space="preserve" fill="#000000"><tspan y="151.55394" x="387.89218">POST /demo-db</tspan></text>
  </g>
  <path marker-end="url(#b)" d="m177.5 150.15067 40.64997-34.24364" stroke="#000" stroke-width=".99477172px" fill="none"/>
  <g transform="matrix(1.3473205,0,0,1.3473205,-349.15343,-66.571887)">
   <rect stroke-linejoin="round" ry="3.7180429" height="7.4360857" width="42.791424" stroke="#000" y="146.30583" x="385.3801" stroke-width=".50378901" fill="#c3c3c3"/>
   <text style="word-spacing:0px;letter-spacing:0px" font-size="5.25742817px" line-height="125%" y="151.55394" x="387.89218" font-family="Consolas" xml:space="preserve" fill="#000000"><tspan y="151.55394" x="387.89218">POST /demo-db</tspan></text>
  </g>
  <g transform="translate(-9.8277222,-2.9750998e-6)">
   <rect stroke-linejoin="round" ry="5.0683289" height="10.136658" width="38.911396" stroke="#000" y="62.899143" x="198.94688" stroke-width=".56089801" fill="#c3c3c3"/>
   <text style="word-spacing:0px;letter-spacing:0px" font-size="7.08344078px" line-height="125%" y="70.028954" x="202.81935" font-family="Consolas" xml:space="preserve" fill="#000000"><tspan y="70.028954" x="202.81935">new docs</tspan></text>
  </g>
  <g transform="translate(-9.8277222,23.586843)">
   <rect stroke-linejoin="round" ry="5.0683289" height="10.136658" width="38.911396" stroke="#000" y="62.899143" x="198.94688" stroke-width=".56089801" fill="#c3c3c3"/>
   <text style="word-spacing:0px;letter-spacing:0px" font-size="7.08344078px" line-height="125%" y="70.028954" x="202.81935" font-family="Consolas" xml:space="preserve" fill="#000000"><tspan y="70.028954" x="202.81935">new docs</tspan></text>
  </g>
 </g>
</svg>
